<mxfile host="app.diagrams.net" agent="Mozilla/5.0 (Windows NT 10.0; Win64; x64) AppleWebKit/537.36 (KHTML, like Gecko) Chrome/136.0.0.0 Safari/537.36" version="27.0.9">
  <diagram id="C5RBs43oDa-KdzZeNtuy" name="Page-1">
    <mxGraphModel dx="2635" dy="1260" grid="1" gridSize="12" guides="1" tooltips="1" connect="1" arrows="1" fold="1" page="1" pageScale="1" pageWidth="827" pageHeight="1169" math="0" shadow="0">
      <root>
        <mxCell id="WIyWlLk6GJQsqaUBKTNV-0" />
        <mxCell id="WIyWlLk6GJQsqaUBKTNV-1" parent="WIyWlLk6GJQsqaUBKTNV-0" />
        <mxCell id="Uc0-LxrvivF567ajh-_D-2" value="" style="edgeStyle=orthogonalEdgeStyle;rounded=0;orthogonalLoop=1;jettySize=auto;html=1;" parent="WIyWlLk6GJQsqaUBKTNV-1" source="Uc0-LxrvivF567ajh-_D-0" target="Uc0-LxrvivF567ajh-_D-1" edge="1">
          <mxGeometry relative="1" as="geometry" />
        </mxCell>
        <mxCell id="Uc0-LxrvivF567ajh-_D-0" value="Start" style="strokeWidth=2;html=1;shape=mxgraph.flowchart.start_1;whiteSpace=wrap;" parent="WIyWlLk6GJQsqaUBKTNV-1" vertex="1">
          <mxGeometry x="30" y="36" width="100" height="40" as="geometry" />
        </mxCell>
        <mxCell id="Uc0-LxrvivF567ajh-_D-4" value="" style="edgeStyle=orthogonalEdgeStyle;rounded=0;orthogonalLoop=1;jettySize=auto;html=1;" parent="WIyWlLk6GJQsqaUBKTNV-1" source="Uc0-LxrvivF567ajh-_D-1" target="Uc0-LxrvivF567ajh-_D-3" edge="1">
          <mxGeometry relative="1" as="geometry" />
        </mxCell>
        <mxCell id="Uc0-LxrvivF567ajh-_D-1" value="Login Form" style="shape=parallelogram;perimeter=parallelogramPerimeter;whiteSpace=wrap;html=1;fixedSize=1;strokeWidth=2;" parent="WIyWlLk6GJQsqaUBKTNV-1" vertex="1">
          <mxGeometry x="20" y="105" width="120" height="30" as="geometry" />
        </mxCell>
        <mxCell id="Uc0-LxrvivF567ajh-_D-6" value="" style="edgeStyle=orthogonalEdgeStyle;rounded=0;orthogonalLoop=1;jettySize=auto;html=1;" parent="WIyWlLk6GJQsqaUBKTNV-1" source="Uc0-LxrvivF567ajh-_D-3" target="ShsvSv2e8H0igmz0pUxx-1" edge="1">
          <mxGeometry relative="1" as="geometry" />
        </mxCell>
        <mxCell id="Uc0-LxrvivF567ajh-_D-24" value="" style="edgeStyle=orthogonalEdgeStyle;rounded=0;orthogonalLoop=1;jettySize=auto;html=1;" parent="WIyWlLk6GJQsqaUBKTNV-1" source="Uc0-LxrvivF567ajh-_D-3" target="Uc0-LxrvivF567ajh-_D-23" edge="1">
          <mxGeometry relative="1" as="geometry" />
        </mxCell>
        <mxCell id="Uc0-LxrvivF567ajh-_D-25" value="Yes" style="edgeLabel;html=1;align=center;verticalAlign=middle;resizable=0;points=[];" parent="Uc0-LxrvivF567ajh-_D-24" vertex="1" connectable="0">
          <mxGeometry x="-0.12" y="1" relative="1" as="geometry">
            <mxPoint as="offset" />
          </mxGeometry>
        </mxCell>
        <mxCell id="Uc0-LxrvivF567ajh-_D-3" value="Registered?" style="rhombus;whiteSpace=wrap;html=1;strokeWidth=2;" parent="WIyWlLk6GJQsqaUBKTNV-1" vertex="1">
          <mxGeometry x="40" y="175" width="80" height="80" as="geometry" />
        </mxCell>
        <mxCell id="Uc0-LxrvivF567ajh-_D-8" value="" style="edgeStyle=orthogonalEdgeStyle;rounded=0;orthogonalLoop=1;jettySize=auto;html=1;" parent="WIyWlLk6GJQsqaUBKTNV-1" source="Uc0-LxrvivF567ajh-_D-5" target="Uc0-LxrvivF567ajh-_D-7" edge="1">
          <mxGeometry relative="1" as="geometry" />
        </mxCell>
        <mxCell id="Uc0-LxrvivF567ajh-_D-5" value="Input Details" style="shape=parallelogram;perimeter=parallelogramPerimeter;whiteSpace=wrap;html=1;fixedSize=1;strokeWidth=2;" parent="WIyWlLk6GJQsqaUBKTNV-1" vertex="1">
          <mxGeometry x="277.52" y="190" width="130" height="50" as="geometry" />
        </mxCell>
        <mxCell id="Uc0-LxrvivF567ajh-_D-13" value="" style="edgeStyle=orthogonalEdgeStyle;rounded=0;orthogonalLoop=1;jettySize=auto;html=1;entryX=0.5;entryY=0;entryDx=0;entryDy=0;exitX=0.5;exitY=0;exitDx=0;exitDy=0;" parent="WIyWlLk6GJQsqaUBKTNV-1" source="Uc0-LxrvivF567ajh-_D-7" target="Uc0-LxrvivF567ajh-_D-5" edge="1">
          <mxGeometry relative="1" as="geometry">
            <mxPoint x="497.52" y="95" as="targetPoint" />
          </mxGeometry>
        </mxCell>
        <mxCell id="Uc0-LxrvivF567ajh-_D-14" value="False" style="edgeLabel;html=1;align=center;verticalAlign=middle;resizable=0;points=[];" parent="Uc0-LxrvivF567ajh-_D-13" vertex="1" connectable="0">
          <mxGeometry x="-0.0857" y="-2" relative="1" as="geometry">
            <mxPoint as="offset" />
          </mxGeometry>
        </mxCell>
        <mxCell id="t4tHIIzPQDvXIn7TSngj-36" value="" style="edgeStyle=orthogonalEdgeStyle;rounded=0;orthogonalLoop=1;jettySize=auto;html=1;" parent="WIyWlLk6GJQsqaUBKTNV-1" source="Uc0-LxrvivF567ajh-_D-7" target="t4tHIIzPQDvXIn7TSngj-35" edge="1">
          <mxGeometry relative="1" as="geometry" />
        </mxCell>
        <mxCell id="t4tHIIzPQDvXIn7TSngj-38" value="True" style="edgeLabel;html=1;align=center;verticalAlign=middle;resizable=0;points=[];" parent="t4tHIIzPQDvXIn7TSngj-36" vertex="1" connectable="0">
          <mxGeometry x="-0.2417" y="-1" relative="1" as="geometry">
            <mxPoint as="offset" />
          </mxGeometry>
        </mxCell>
        <mxCell id="Uc0-LxrvivF567ajh-_D-7" value="are&amp;nbsp;&lt;div&gt;details&lt;/div&gt;&lt;div&gt;valid?&lt;/div&gt;" style="rhombus;whiteSpace=wrap;html=1;strokeWidth=2;" parent="WIyWlLk6GJQsqaUBKTNV-1" vertex="1">
          <mxGeometry x="414.56" y="175" width="80" height="80" as="geometry" />
        </mxCell>
        <mxCell id="t4tHIIzPQDvXIn7TSngj-23" value="" style="edgeStyle=orthogonalEdgeStyle;rounded=0;orthogonalLoop=1;jettySize=auto;html=1;entryX=0.5;entryY=0;entryDx=0;entryDy=0;entryPerimeter=0;" parent="WIyWlLk6GJQsqaUBKTNV-1" source="Uc0-LxrvivF567ajh-_D-9" target="Uc0-LxrvivF567ajh-_D-28" edge="1">
          <mxGeometry relative="1" as="geometry">
            <mxPoint x="646.1198113848127" y="309.33333333333326" as="targetPoint" />
          </mxGeometry>
        </mxCell>
        <mxCell id="t4tHIIzPQDvXIn7TSngj-24" value="" style="edgeStyle=orthogonalEdgeStyle;rounded=0;orthogonalLoop=1;jettySize=auto;html=1;" parent="WIyWlLk6GJQsqaUBKTNV-1" source="Uc0-LxrvivF567ajh-_D-9" target="Uc0-LxrvivF567ajh-_D-19" edge="1">
          <mxGeometry relative="1" as="geometry" />
        </mxCell>
        <mxCell id="Uc0-LxrvivF567ajh-_D-9" value="&lt;div&gt;&lt;br&gt;&lt;/div&gt;Registered&lt;div&gt;Successfully&lt;br&gt;&lt;br&gt;&lt;/div&gt;" style="shape=parallelogram;perimeter=parallelogramPerimeter;whiteSpace=wrap;html=1;fixedSize=1;strokeWidth=2;" parent="WIyWlLk6GJQsqaUBKTNV-1" vertex="1">
          <mxGeometry x="672.2399999999999" y="279.25" width="120" height="60" as="geometry" />
        </mxCell>
        <mxCell id="Uc0-LxrvivF567ajh-_D-11" value="No" style="text;html=1;align=center;verticalAlign=middle;resizable=0;points=[];autosize=1;strokeColor=none;fillColor=none;" parent="WIyWlLk6GJQsqaUBKTNV-1" vertex="1">
          <mxGeometry x="120" y="193" width="40" height="30" as="geometry" />
        </mxCell>
        <mxCell id="Uc0-LxrvivF567ajh-_D-19" value="1" style="ellipse;whiteSpace=wrap;html=1;strokeWidth=2;" parent="WIyWlLk6GJQsqaUBKTNV-1" vertex="1">
          <mxGeometry x="707.0199999999999" y="367.5" width="50" height="40" as="geometry" />
        </mxCell>
        <mxCell id="Uc0-LxrvivF567ajh-_D-22" value="" style="edgeStyle=orthogonalEdgeStyle;rounded=0;orthogonalLoop=1;jettySize=auto;html=1;" parent="WIyWlLk6GJQsqaUBKTNV-1" source="Uc0-LxrvivF567ajh-_D-21" target="Uc0-LxrvivF567ajh-_D-1" edge="1">
          <mxGeometry relative="1" as="geometry" />
        </mxCell>
        <mxCell id="Uc0-LxrvivF567ajh-_D-21" value="1" style="ellipse;whiteSpace=wrap;html=1;strokeWidth=2;" parent="WIyWlLk6GJQsqaUBKTNV-1" vertex="1">
          <mxGeometry x="190" y="100" width="50" height="40" as="geometry" />
        </mxCell>
        <mxCell id="Uc0-LxrvivF567ajh-_D-27" value="" style="edgeStyle=orthogonalEdgeStyle;rounded=0;orthogonalLoop=1;jettySize=auto;html=1;" parent="WIyWlLk6GJQsqaUBKTNV-1" source="Uc0-LxrvivF567ajh-_D-23" target="Uc0-LxrvivF567ajh-_D-26" edge="1">
          <mxGeometry relative="1" as="geometry" />
        </mxCell>
        <mxCell id="Uc0-LxrvivF567ajh-_D-23" value="input email&amp;nbsp;&lt;div&gt;and password&lt;/div&gt;" style="shape=parallelogram;perimeter=parallelogramPerimeter;whiteSpace=wrap;html=1;fixedSize=1;strokeWidth=2;" parent="WIyWlLk6GJQsqaUBKTNV-1" vertex="1">
          <mxGeometry x="15" y="295" width="130" height="60" as="geometry" />
        </mxCell>
        <mxCell id="Uc0-LxrvivF567ajh-_D-33" value="" style="edgeStyle=orthogonalEdgeStyle;rounded=0;orthogonalLoop=1;jettySize=auto;html=1;" parent="WIyWlLk6GJQsqaUBKTNV-1" source="Uc0-LxrvivF567ajh-_D-26" target="Uc0-LxrvivF567ajh-_D-32" edge="1">
          <mxGeometry relative="1" as="geometry" />
        </mxCell>
        <mxCell id="X0sMikLkQmicngNCFKQL-89" value="" style="edgeStyle=orthogonalEdgeStyle;rounded=0;orthogonalLoop=1;jettySize=auto;html=1;" parent="WIyWlLk6GJQsqaUBKTNV-1" source="Uc0-LxrvivF567ajh-_D-26" target="Uc0-LxrvivF567ajh-_D-28" edge="1">
          <mxGeometry relative="1" as="geometry" />
        </mxCell>
        <mxCell id="Uc0-LxrvivF567ajh-_D-26" value="Get email,&lt;div&gt;password, type&lt;/div&gt;&lt;div&gt;and status from&lt;/div&gt;&lt;div&gt;user_table&lt;/div&gt;" style="rounded=1;whiteSpace=wrap;html=1;strokeWidth=2;" parent="WIyWlLk6GJQsqaUBKTNV-1" vertex="1">
          <mxGeometry x="15" y="375" width="130" height="90" as="geometry" />
        </mxCell>
        <mxCell id="Uc0-LxrvivF567ajh-_D-28" value="user_table" style="strokeWidth=2;html=1;shape=mxgraph.flowchart.database;whiteSpace=wrap;" parent="WIyWlLk6GJQsqaUBKTNV-1" vertex="1">
          <mxGeometry x="198.35" y="400" width="80" height="40" as="geometry" />
        </mxCell>
        <mxCell id="Uc0-LxrvivF567ajh-_D-35" value="" style="edgeStyle=orthogonalEdgeStyle;rounded=0;orthogonalLoop=1;jettySize=auto;html=1;" parent="WIyWlLk6GJQsqaUBKTNV-1" source="Uc0-LxrvivF567ajh-_D-32" target="Uc0-LxrvivF567ajh-_D-34" edge="1">
          <mxGeometry relative="1" as="geometry" />
        </mxCell>
        <mxCell id="Uc0-LxrvivF567ajh-_D-36" value="No" style="edgeLabel;html=1;align=center;verticalAlign=middle;resizable=0;points=[];" parent="Uc0-LxrvivF567ajh-_D-35" vertex="1" connectable="0">
          <mxGeometry x="-0.1667" y="3" relative="1" as="geometry">
            <mxPoint as="offset" />
          </mxGeometry>
        </mxCell>
        <mxCell id="Uc0-LxrvivF567ajh-_D-111" value="" style="edgeStyle=orthogonalEdgeStyle;rounded=0;orthogonalLoop=1;jettySize=auto;html=1;" parent="WIyWlLk6GJQsqaUBKTNV-1" source="Uc0-LxrvivF567ajh-_D-32" target="Uc0-LxrvivF567ajh-_D-110" edge="1">
          <mxGeometry relative="1" as="geometry" />
        </mxCell>
        <mxCell id="Uc0-LxrvivF567ajh-_D-32" value="is email&lt;div&gt;and password&amp;nbsp;&lt;/div&gt;&lt;div&gt;match?&lt;/div&gt;" style="rhombus;whiteSpace=wrap;html=1;rounded=1;strokeWidth=2;" parent="WIyWlLk6GJQsqaUBKTNV-1" vertex="1">
          <mxGeometry x="15" y="485" width="130" height="100" as="geometry" />
        </mxCell>
        <mxCell id="Uc0-LxrvivF567ajh-_D-34" value="1" style="ellipse;whiteSpace=wrap;html=1;rounded=1;strokeWidth=2;" parent="WIyWlLk6GJQsqaUBKTNV-1" vertex="1">
          <mxGeometry x="220" y="512.5" width="40" height="45" as="geometry" />
        </mxCell>
        <mxCell id="Uc0-LxrvivF567ajh-_D-41" value="" style="edgeStyle=orthogonalEdgeStyle;rounded=0;orthogonalLoop=1;jettySize=auto;html=1;exitX=0.948;exitY=0.506;exitDx=0;exitDy=0;exitPerimeter=0;entryX=0.092;entryY=0.439;entryDx=0;entryDy=0;entryPerimeter=0;" parent="WIyWlLk6GJQsqaUBKTNV-1" source="Uc0-LxrvivF567ajh-_D-37" target="ShsvSv2e8H0igmz0pUxx-6" edge="1">
          <mxGeometry relative="1" as="geometry">
            <mxPoint x="145.00198830409343" y="719.9963157894738" as="sourcePoint" />
            <mxPoint x="205.03999999999996" y="747.4857142857143" as="targetPoint" />
          </mxGeometry>
        </mxCell>
        <mxCell id="Uc0-LxrvivF567ajh-_D-42" value="No" style="edgeLabel;html=1;align=center;verticalAlign=middle;resizable=0;points=[];" parent="Uc0-LxrvivF567ajh-_D-41" vertex="1" connectable="0">
          <mxGeometry x="-0.2" y="4" relative="1" as="geometry">
            <mxPoint as="offset" />
          </mxGeometry>
        </mxCell>
        <mxCell id="Uc0-LxrvivF567ajh-_D-46" value="" style="edgeStyle=orthogonalEdgeStyle;rounded=0;orthogonalLoop=1;jettySize=auto;html=1;" parent="WIyWlLk6GJQsqaUBKTNV-1" source="Uc0-LxrvivF567ajh-_D-37" target="Uc0-LxrvivF567ajh-_D-45" edge="1">
          <mxGeometry relative="1" as="geometry" />
        </mxCell>
        <mxCell id="Uc0-LxrvivF567ajh-_D-47" value="Yes" style="edgeLabel;html=1;align=center;verticalAlign=middle;resizable=0;points=[];" parent="Uc0-LxrvivF567ajh-_D-46" vertex="1" connectable="0">
          <mxGeometry x="-0.25" y="-1" relative="1" as="geometry">
            <mxPoint as="offset" />
          </mxGeometry>
        </mxCell>
        <mxCell id="Uc0-LxrvivF567ajh-_D-37" value="is user type&lt;div&gt;Admin?&lt;/div&gt;" style="rhombus;whiteSpace=wrap;html=1;rounded=1;strokeWidth=2;" parent="WIyWlLk6GJQsqaUBKTNV-1" vertex="1">
          <mxGeometry x="15" y="715" width="130" height="90" as="geometry" />
        </mxCell>
        <mxCell id="ShsvSv2e8H0igmz0pUxx-233" value="" style="edgeStyle=orthogonalEdgeStyle;rounded=0;orthogonalLoop=1;jettySize=auto;html=1;" parent="WIyWlLk6GJQsqaUBKTNV-1" source="Uc0-LxrvivF567ajh-_D-45" target="ShsvSv2e8H0igmz0pUxx-231" edge="1">
          <mxGeometry relative="1" as="geometry" />
        </mxCell>
        <mxCell id="Uc0-LxrvivF567ajh-_D-45" value="" style="verticalLabelPosition=bottom;verticalAlign=top;html=1;shape=offPageConnector;rounded=0;size=0.5;" parent="WIyWlLk6GJQsqaUBKTNV-1" vertex="1">
          <mxGeometry x="50" y="847.53" width="60" height="60" as="geometry" />
        </mxCell>
        <mxCell id="Uc0-LxrvivF567ajh-_D-48" value="2" style="text;html=1;align=center;verticalAlign=middle;whiteSpace=wrap;rounded=0;" parent="WIyWlLk6GJQsqaUBKTNV-1" vertex="1">
          <mxGeometry x="50" y="856.01" width="60" height="30" as="geometry" />
        </mxCell>
        <mxCell id="J2Y3ej7FawQqF2J4Sy8i-4" value="" style="edgeStyle=orthogonalEdgeStyle;rounded=0;orthogonalLoop=1;jettySize=auto;html=1;exitX=1;exitY=0.5;exitDx=0;exitDy=0;" parent="WIyWlLk6GJQsqaUBKTNV-1" source="ShsvSv2e8H0igmz0pUxx-3" target="J2Y3ej7FawQqF2J4Sy8i-3" edge="1">
          <mxGeometry relative="1" as="geometry">
            <Array as="points" />
            <mxPoint x="325.03999999999996" y="835.0344827586207" as="sourcePoint" />
          </mxGeometry>
        </mxCell>
        <mxCell id="J2Y3ej7FawQqF2J4Sy8i-6" value="" style="edgeStyle=orthogonalEdgeStyle;rounded=0;orthogonalLoop=1;jettySize=auto;html=1;exitX=0.5;exitY=1;exitDx=0;exitDy=0;entryX=0.536;entryY=0.008;entryDx=0;entryDy=0;entryPerimeter=0;" parent="WIyWlLk6GJQsqaUBKTNV-1" source="ShsvSv2e8H0igmz0pUxx-3" target="ShsvSv2e8H0igmz0pUxx-5" edge="1">
          <mxGeometry relative="1" as="geometry">
            <mxPoint x="265.03999999999996" y="860" as="sourcePoint" />
            <mxPoint x="265.03999999999996" y="900" as="targetPoint" />
          </mxGeometry>
        </mxCell>
        <mxCell id="Uc0-LxrvivF567ajh-_D-64" value="" style="edgeStyle=orthogonalEdgeStyle;rounded=0;orthogonalLoop=1;jettySize=auto;html=1;" parent="WIyWlLk6GJQsqaUBKTNV-1" source="Uc0-LxrvivF567ajh-_D-53" target="Uc0-LxrvivF567ajh-_D-62" edge="1">
          <mxGeometry relative="1" as="geometry" />
        </mxCell>
        <mxCell id="J2Y3ej7FawQqF2J4Sy8i-64" value="" style="edgeStyle=orthogonalEdgeStyle;rounded=0;orthogonalLoop=1;jettySize=auto;html=1;" parent="WIyWlLk6GJQsqaUBKTNV-1" source="Uc0-LxrvivF567ajh-_D-53" target="Uc0-LxrvivF567ajh-_D-67" edge="1">
          <mxGeometry relative="1" as="geometry" />
        </mxCell>
        <mxCell id="Uc0-LxrvivF567ajh-_D-53" value="&lt;font style=&quot;font-size: 14px;&quot;&gt;Get Students Data&lt;/font&gt;" style="whiteSpace=wrap;html=1;rounded=1;strokeWidth=2;" parent="WIyWlLk6GJQsqaUBKTNV-1" vertex="1">
          <mxGeometry x="857.79" y="672" width="150" height="58" as="geometry" />
        </mxCell>
        <mxCell id="Uc0-LxrvivF567ajh-_D-62" value="stud_table" style="strokeWidth=2;html=1;shape=mxgraph.flowchart.database;whiteSpace=wrap;" parent="WIyWlLk6GJQsqaUBKTNV-1" vertex="1">
          <mxGeometry x="1059.83" y="676.5" width="102.96" height="49" as="geometry" />
        </mxCell>
        <mxCell id="J2Y3ej7FawQqF2J4Sy8i-65" value="" style="edgeStyle=orthogonalEdgeStyle;rounded=0;orthogonalLoop=1;jettySize=auto;html=1;" parent="WIyWlLk6GJQsqaUBKTNV-1" source="Uc0-LxrvivF567ajh-_D-67" target="Uc0-LxrvivF567ajh-_D-69" edge="1">
          <mxGeometry relative="1" as="geometry" />
        </mxCell>
        <mxCell id="J2Y3ej7FawQqF2J4Sy8i-80" value="" style="edgeStyle=orthogonalEdgeStyle;rounded=0;orthogonalLoop=1;jettySize=auto;html=1;" parent="WIyWlLk6GJQsqaUBKTNV-1" source="Uc0-LxrvivF567ajh-_D-67" target="J2Y3ej7FawQqF2J4Sy8i-71" edge="1">
          <mxGeometry relative="1" as="geometry" />
        </mxCell>
        <mxCell id="Uc0-LxrvivF567ajh-_D-67" value="&lt;font style=&quot;font-size: 14px;&quot;&gt;Add Student Data&lt;/font&gt;" style="whiteSpace=wrap;html=1;rounded=1;strokeWidth=2;" parent="WIyWlLk6GJQsqaUBKTNV-1" vertex="1">
          <mxGeometry x="857.5399999999998" y="768" width="150" height="60" as="geometry" />
        </mxCell>
        <mxCell id="J2Y3ej7FawQqF2J4Sy8i-66" value="" style="edgeStyle=orthogonalEdgeStyle;rounded=0;orthogonalLoop=1;jettySize=auto;html=1;" parent="WIyWlLk6GJQsqaUBKTNV-1" source="Uc0-LxrvivF567ajh-_D-69" target="Uc0-LxrvivF567ajh-_D-71" edge="1">
          <mxGeometry relative="1" as="geometry" />
        </mxCell>
        <mxCell id="Uc0-LxrvivF567ajh-_D-69" value="&lt;span style=&quot;font-size: 14px;&quot;&gt;input firstname, lastname, program, section, address, contact number&lt;/span&gt;" style="shape=parallelogram;perimeter=parallelogramPerimeter;whiteSpace=wrap;html=1;fixedSize=1;rounded=1;strokeWidth=2;" parent="WIyWlLk6GJQsqaUBKTNV-1" vertex="1">
          <mxGeometry x="1049.6499999999999" y="756" width="203.68" height="84" as="geometry" />
        </mxCell>
        <mxCell id="J2Y3ej7FawQqF2J4Sy8i-67" value="" style="edgeStyle=orthogonalEdgeStyle;rounded=0;orthogonalLoop=1;jettySize=auto;html=1;entryX=0;entryY=0.5;entryDx=0;entryDy=0;" parent="WIyWlLk6GJQsqaUBKTNV-1" source="Uc0-LxrvivF567ajh-_D-71" target="ShsvSv2e8H0igmz0pUxx-19" edge="1">
          <mxGeometry relative="1" as="geometry" />
        </mxCell>
        <mxCell id="Uc0-LxrvivF567ajh-_D-71" value="&lt;font style=&quot;font-size: 14px;&quot;&gt;Click add&amp;nbsp;&lt;/font&gt;&lt;div&gt;&lt;font style=&quot;font-size: 14px;&quot;&gt;student button&lt;/font&gt;&lt;/div&gt;" style="whiteSpace=wrap;html=1;rounded=1;strokeWidth=2;" parent="WIyWlLk6GJQsqaUBKTNV-1" vertex="1">
          <mxGeometry x="1279.6499999999999" y="768" width="82.31" height="60" as="geometry" />
        </mxCell>
        <mxCell id="J2Y3ej7FawQqF2J4Sy8i-69" value="" style="edgeStyle=orthogonalEdgeStyle;rounded=0;orthogonalLoop=1;jettySize=auto;html=1;" parent="WIyWlLk6GJQsqaUBKTNV-1" target="J2Y3ej7FawQqF2J4Sy8i-68" edge="1">
          <mxGeometry relative="1" as="geometry">
            <mxPoint x="1556.1499619630326" y="798.0434782608695" as="sourcePoint" />
          </mxGeometry>
        </mxCell>
        <mxCell id="J2Y3ej7FawQqF2J4Sy8i-82" value="" style="edgeStyle=orthogonalEdgeStyle;rounded=0;orthogonalLoop=1;jettySize=auto;html=1;" parent="WIyWlLk6GJQsqaUBKTNV-1" source="Uc0-LxrvivF567ajh-_D-91" target="Uc0-LxrvivF567ajh-_D-93" edge="1">
          <mxGeometry relative="1" as="geometry" />
        </mxCell>
        <mxCell id="Uc0-LxrvivF567ajh-_D-91" value="Delete Student Data" style="whiteSpace=wrap;html=1;rounded=1;strokeWidth=2;fontSize=14;" parent="WIyWlLk6GJQsqaUBKTNV-1" vertex="1">
          <mxGeometry x="857.5399999999998" y="972" width="150" height="60" as="geometry" />
        </mxCell>
        <mxCell id="J2Y3ej7FawQqF2J4Sy8i-83" value="" style="edgeStyle=orthogonalEdgeStyle;rounded=0;orthogonalLoop=1;jettySize=auto;html=1;entryX=0;entryY=0.5;entryDx=0;entryDy=0;" parent="WIyWlLk6GJQsqaUBKTNV-1" source="Uc0-LxrvivF567ajh-_D-93" target="Uc0-LxrvivF567ajh-_D-97" edge="1">
          <mxGeometry relative="1" as="geometry" />
        </mxCell>
        <mxCell id="Uc0-LxrvivF567ajh-_D-93" value="Select Student Data" style="whiteSpace=wrap;html=1;rounded=1;strokeWidth=2;fontSize=14;" parent="WIyWlLk6GJQsqaUBKTNV-1" vertex="1">
          <mxGeometry x="1034.8899999999999" y="972" width="88.04" height="60" as="geometry" />
        </mxCell>
        <mxCell id="Uc0-LxrvivF567ajh-_D-98" value="" style="edgeStyle=orthogonalEdgeStyle;rounded=0;orthogonalLoop=1;jettySize=auto;html=1;entryX=0;entryY=0.5;entryDx=0;entryDy=0;" parent="WIyWlLk6GJQsqaUBKTNV-1" source="Uc0-LxrvivF567ajh-_D-95" target="ShsvSv2e8H0igmz0pUxx-17" edge="1">
          <mxGeometry relative="1" as="geometry" />
        </mxCell>
        <mxCell id="J2Y3ej7FawQqF2J4Sy8i-87" value="Yes" style="edgeLabel;html=1;align=center;verticalAlign=middle;resizable=0;points=[];" parent="Uc0-LxrvivF567ajh-_D-98" vertex="1" connectable="0">
          <mxGeometry x="0.0193" y="3" relative="1" as="geometry">
            <mxPoint y="1" as="offset" />
          </mxGeometry>
        </mxCell>
        <mxCell id="J2Y3ej7FawQqF2J4Sy8i-89" value="" style="edgeStyle=orthogonalEdgeStyle;rounded=0;orthogonalLoop=1;jettySize=auto;html=1;entryX=0.5;entryY=0;entryDx=0;entryDy=0;" parent="WIyWlLk6GJQsqaUBKTNV-1" source="Uc0-LxrvivF567ajh-_D-95" target="J2Y3ej7FawQqF2J4Sy8i-90" edge="1">
          <mxGeometry relative="1" as="geometry">
            <mxPoint x="1296.0599999999995" y="1122" as="targetPoint" />
          </mxGeometry>
        </mxCell>
        <mxCell id="J2Y3ej7FawQqF2J4Sy8i-91" value="No" style="edgeLabel;html=1;align=center;verticalAlign=middle;resizable=0;points=[];" parent="J2Y3ej7FawQqF2J4Sy8i-89" vertex="1" connectable="0">
          <mxGeometry x="-0.1325" y="2" relative="1" as="geometry">
            <mxPoint x="1" y="1" as="offset" />
          </mxGeometry>
        </mxCell>
        <mxCell id="Uc0-LxrvivF567ajh-_D-95" value="&lt;font style=&quot;font-size: 14px;&quot;&gt;are you&lt;/font&gt;&lt;div&gt;&lt;font style=&quot;font-size: 14px;&quot;&gt;sure?&lt;/font&gt;&lt;/div&gt;" style="rhombus;whiteSpace=wrap;html=1;rounded=1;strokeWidth=2;" parent="WIyWlLk6GJQsqaUBKTNV-1" vertex="1">
          <mxGeometry x="1246.0699999999997" y="964.25" width="109.5" height="80" as="geometry" />
        </mxCell>
        <mxCell id="ShsvSv2e8H0igmz0pUxx-27" value="" style="edgeStyle=orthogonalEdgeStyle;rounded=0;orthogonalLoop=1;jettySize=auto;html=1;" parent="WIyWlLk6GJQsqaUBKTNV-1" source="Uc0-LxrvivF567ajh-_D-97" target="Uc0-LxrvivF567ajh-_D-95" edge="1">
          <mxGeometry relative="1" as="geometry">
            <Array as="points">
              <mxPoint x="1244.85" y="1002" />
              <mxPoint x="1244.85" y="1002" />
            </Array>
          </mxGeometry>
        </mxCell>
        <mxCell id="Uc0-LxrvivF567ajh-_D-97" value="&lt;span style=&quot;font-size: 14px;&quot;&gt;Click delete student button&lt;/span&gt;" style="whiteSpace=wrap;html=1;rounded=1;strokeWidth=2;" parent="WIyWlLk6GJQsqaUBKTNV-1" vertex="1">
          <mxGeometry x="1149.1899999999998" y="972" width="78.22" height="60" as="geometry" />
        </mxCell>
        <mxCell id="Uc0-LxrvivF567ajh-_D-112" value="" style="edgeStyle=orthogonalEdgeStyle;rounded=0;orthogonalLoop=1;jettySize=auto;html=1;" parent="WIyWlLk6GJQsqaUBKTNV-1" source="Uc0-LxrvivF567ajh-_D-110" target="Uc0-LxrvivF567ajh-_D-37" edge="1">
          <mxGeometry relative="1" as="geometry" />
        </mxCell>
        <mxCell id="Uc0-LxrvivF567ajh-_D-114" value="" style="edgeStyle=orthogonalEdgeStyle;rounded=0;orthogonalLoop=1;jettySize=auto;html=1;" parent="WIyWlLk6GJQsqaUBKTNV-1" source="Uc0-LxrvivF567ajh-_D-110" target="Uc0-LxrvivF567ajh-_D-113" edge="1">
          <mxGeometry relative="1" as="geometry" />
        </mxCell>
        <mxCell id="Uc0-LxrvivF567ajh-_D-118" value="No" style="edgeLabel;html=1;align=center;verticalAlign=middle;resizable=0;points=[];" parent="Uc0-LxrvivF567ajh-_D-114" vertex="1" connectable="0">
          <mxGeometry x="-0.1333" y="1" relative="1" as="geometry">
            <mxPoint as="offset" />
          </mxGeometry>
        </mxCell>
        <mxCell id="Uc0-LxrvivF567ajh-_D-110" value="is user status&lt;div&gt;active?&lt;/div&gt;" style="rhombus;whiteSpace=wrap;html=1;rounded=1;strokeWidth=2;" parent="WIyWlLk6GJQsqaUBKTNV-1" vertex="1">
          <mxGeometry x="15" y="610" width="130" height="70" as="geometry" />
        </mxCell>
        <mxCell id="Uc0-LxrvivF567ajh-_D-113" value="Account Pending,&lt;div&gt;&lt;span style=&quot;background-color: transparent; color: light-dark(rgb(0, 0, 0), rgb(255, 255, 255));&quot;&gt;Please Contact Admin&lt;/span&gt;&lt;/div&gt;" style="rounded=1;whiteSpace=wrap;html=1;strokeWidth=2;" parent="WIyWlLk6GJQsqaUBKTNV-1" vertex="1">
          <mxGeometry x="190" y="585" width="170" height="60" as="geometry" />
        </mxCell>
        <mxCell id="Uc0-LxrvivF567ajh-_D-116" value="" style="edgeStyle=orthogonalEdgeStyle;rounded=0;orthogonalLoop=1;jettySize=auto;html=1;entryX=0;entryY=0.5;entryDx=0;entryDy=0;exitX=1;exitY=0.5;exitDx=0;exitDy=0;" parent="WIyWlLk6GJQsqaUBKTNV-1" source="Uc0-LxrvivF567ajh-_D-113" target="Uc0-LxrvivF567ajh-_D-115" edge="1">
          <mxGeometry relative="1" as="geometry">
            <mxPoint x="432" y="696" as="sourcePoint" />
          </mxGeometry>
        </mxCell>
        <mxCell id="Uc0-LxrvivF567ajh-_D-115" value="1" style="ellipse;whiteSpace=wrap;html=1;rounded=1;strokeWidth=2;" parent="WIyWlLk6GJQsqaUBKTNV-1" vertex="1">
          <mxGeometry x="394.91999999999996" y="592.5" width="40" height="45" as="geometry" />
        </mxCell>
        <mxCell id="Uc0-LxrvivF567ajh-_D-117" value="Yes" style="text;html=1;align=center;verticalAlign=middle;whiteSpace=wrap;rounded=0;" parent="WIyWlLk6GJQsqaUBKTNV-1" vertex="1">
          <mxGeometry x="75" y="590" width="45" height="10" as="geometry" />
        </mxCell>
        <mxCell id="Uc0-LxrvivF567ajh-_D-119" value="Yes" style="text;html=1;align=center;verticalAlign=middle;whiteSpace=wrap;rounded=0;" parent="WIyWlLk6GJQsqaUBKTNV-1" vertex="1">
          <mxGeometry x="75" y="680" width="45" height="10" as="geometry" />
        </mxCell>
        <mxCell id="J2Y3ej7FawQqF2J4Sy8i-3" value="" style="verticalLabelPosition=bottom;verticalAlign=top;html=1;shape=offPageConnector;rounded=0;size=0.5;" parent="WIyWlLk6GJQsqaUBKTNV-1" vertex="1">
          <mxGeometry x="380" y="795.38" width="60" height="60" as="geometry" />
        </mxCell>
        <mxCell id="J2Y3ej7FawQqF2J4Sy8i-9" value="" style="edgeStyle=orthogonalEdgeStyle;rounded=0;orthogonalLoop=1;jettySize=auto;html=1;entryX=0;entryY=0.5;entryDx=0;entryDy=0;exitX=1;exitY=0.5;exitDx=0;exitDy=0;" parent="WIyWlLk6GJQsqaUBKTNV-1" source="ShsvSv2e8H0igmz0pUxx-5" target="J2Y3ej7FawQqF2J4Sy8i-8" edge="1">
          <mxGeometry relative="1" as="geometry">
            <mxPoint x="325.03999999999996" y="925" as="sourcePoint" />
          </mxGeometry>
        </mxCell>
        <mxCell id="J2Y3ej7FawQqF2J4Sy8i-8" value="" style="verticalLabelPosition=bottom;verticalAlign=top;html=1;shape=offPageConnector;rounded=0;size=0.5;" parent="WIyWlLk6GJQsqaUBKTNV-1" vertex="1">
          <mxGeometry x="440" y="856.53" width="60" height="60" as="geometry" />
        </mxCell>
        <mxCell id="21Ma2qsHcwFOpxgYxjZl-180" value="" style="edgeStyle=orthogonalEdgeStyle;rounded=0;orthogonalLoop=1;jettySize=auto;html=1;exitX=1;exitY=0.5;exitDx=0;exitDy=0;entryX=0.025;entryY=0.502;entryDx=0;entryDy=0;entryPerimeter=0;" parent="WIyWlLk6GJQsqaUBKTNV-1" source="ShsvSv2e8H0igmz0pUxx-8" target="21Ma2qsHcwFOpxgYxjZl-177" edge="1">
          <mxGeometry relative="1" as="geometry">
            <mxPoint x="325.03999999999996" y="1021" as="sourcePoint" />
          </mxGeometry>
        </mxCell>
        <mxCell id="J2Y3ej7FawQqF2J4Sy8i-63" value="" style="edgeStyle=orthogonalEdgeStyle;rounded=0;orthogonalLoop=1;jettySize=auto;html=1;" parent="WIyWlLk6GJQsqaUBKTNV-1" source="J2Y3ej7FawQqF2J4Sy8i-59" edge="1">
          <mxGeometry relative="1" as="geometry">
            <mxPoint x="928.81" y="672" as="targetPoint" />
          </mxGeometry>
        </mxCell>
        <mxCell id="J2Y3ej7FawQqF2J4Sy8i-59" value="" style="verticalLabelPosition=bottom;verticalAlign=top;html=1;shape=offPageConnector;rounded=0;size=0.5;" parent="WIyWlLk6GJQsqaUBKTNV-1" vertex="1">
          <mxGeometry x="898.81" y="576" width="60" height="60" as="geometry" />
        </mxCell>
        <mxCell id="J2Y3ej7FawQqF2J4Sy8i-68" value="4" style="ellipse;whiteSpace=wrap;html=1;rounded=1;strokeWidth=2;fontSize=14;" parent="WIyWlLk6GJQsqaUBKTNV-1" vertex="1">
          <mxGeometry x="1571.79" y="771.75" width="55.46" height="52.5" as="geometry" />
        </mxCell>
        <mxCell id="J2Y3ej7FawQqF2J4Sy8i-70" value="" style="edgeStyle=orthogonalEdgeStyle;rounded=0;orthogonalLoop=1;jettySize=auto;html=1;" parent="WIyWlLk6GJQsqaUBKTNV-1" source="J2Y3ej7FawQqF2J4Sy8i-71" target="J2Y3ej7FawQqF2J4Sy8i-73" edge="1">
          <mxGeometry relative="1" as="geometry" />
        </mxCell>
        <mxCell id="J2Y3ej7FawQqF2J4Sy8i-81" value="" style="edgeStyle=orthogonalEdgeStyle;rounded=0;orthogonalLoop=1;jettySize=auto;html=1;" parent="WIyWlLk6GJQsqaUBKTNV-1" source="J2Y3ej7FawQqF2J4Sy8i-71" target="Uc0-LxrvivF567ajh-_D-91" edge="1">
          <mxGeometry relative="1" as="geometry" />
        </mxCell>
        <mxCell id="J2Y3ej7FawQqF2J4Sy8i-71" value="&lt;font style=&quot;font-size: 14px;&quot;&gt;Edit Student Data&lt;/font&gt;" style="whiteSpace=wrap;html=1;rounded=1;strokeWidth=2;" parent="WIyWlLk6GJQsqaUBKTNV-1" vertex="1">
          <mxGeometry x="857.79" y="872.25" width="150" height="60" as="geometry" />
        </mxCell>
        <mxCell id="J2Y3ej7FawQqF2J4Sy8i-72" value="" style="edgeStyle=orthogonalEdgeStyle;rounded=0;orthogonalLoop=1;jettySize=auto;html=1;" parent="WIyWlLk6GJQsqaUBKTNV-1" source="J2Y3ej7FawQqF2J4Sy8i-73" target="J2Y3ej7FawQqF2J4Sy8i-75" edge="1">
          <mxGeometry relative="1" as="geometry" />
        </mxCell>
        <mxCell id="J2Y3ej7FawQqF2J4Sy8i-73" value="&lt;span style=&quot;font-size: 14px;&quot;&gt;input firstname, lastname, program, section, address, contact number&lt;/span&gt;" style="shape=parallelogram;perimeter=parallelogramPerimeter;whiteSpace=wrap;html=1;fixedSize=1;rounded=1;strokeWidth=2;" parent="WIyWlLk6GJQsqaUBKTNV-1" vertex="1">
          <mxGeometry x="1046.01" y="860.25" width="210.96" height="84" as="geometry" />
        </mxCell>
        <mxCell id="J2Y3ej7FawQqF2J4Sy8i-74" value="" style="edgeStyle=orthogonalEdgeStyle;rounded=0;orthogonalLoop=1;jettySize=auto;html=1;entryX=0;entryY=0.5;entryDx=0;entryDy=0;" parent="WIyWlLk6GJQsqaUBKTNV-1" source="J2Y3ej7FawQqF2J4Sy8i-75" target="ShsvSv2e8H0igmz0pUxx-21" edge="1">
          <mxGeometry relative="1" as="geometry" />
        </mxCell>
        <mxCell id="J2Y3ej7FawQqF2J4Sy8i-75" value="&lt;span style=&quot;font-size: 14px;&quot;&gt;Click edit student button&lt;/span&gt;" style="whiteSpace=wrap;html=1;rounded=1;strokeWidth=2;" parent="WIyWlLk6GJQsqaUBKTNV-1" vertex="1">
          <mxGeometry x="1282.54" y="872.25" width="82.31" height="60" as="geometry" />
        </mxCell>
        <mxCell id="J2Y3ej7FawQqF2J4Sy8i-76" value="" style="edgeStyle=orthogonalEdgeStyle;rounded=0;orthogonalLoop=1;jettySize=auto;html=1;" parent="WIyWlLk6GJQsqaUBKTNV-1" target="J2Y3ej7FawQqF2J4Sy8i-78" edge="1">
          <mxGeometry relative="1" as="geometry">
            <mxPoint x="1556.1499786042123" y="902.217391304348" as="sourcePoint" />
          </mxGeometry>
        </mxCell>
        <mxCell id="J2Y3ej7FawQqF2J4Sy8i-78" value="4" style="ellipse;whiteSpace=wrap;html=1;rounded=1;strokeWidth=2;fontSize=14;" parent="WIyWlLk6GJQsqaUBKTNV-1" vertex="1">
          <mxGeometry x="1571.79" y="876" width="55.46" height="52.5" as="geometry" />
        </mxCell>
        <mxCell id="J2Y3ej7FawQqF2J4Sy8i-85" value="4" style="ellipse;whiteSpace=wrap;html=1;rounded=1;strokeWidth=2;fontSize=14;" parent="WIyWlLk6GJQsqaUBKTNV-1" vertex="1">
          <mxGeometry x="1571.79" y="975.75" width="55.46" height="52.5" as="geometry" />
        </mxCell>
        <mxCell id="J2Y3ej7FawQqF2J4Sy8i-90" value="4" style="ellipse;whiteSpace=wrap;html=1;rounded=1;strokeWidth=2;fontSize=14;" parent="WIyWlLk6GJQsqaUBKTNV-1" vertex="1">
          <mxGeometry x="1273.09" y="1072.97" width="55.46" height="52.5" as="geometry" />
        </mxCell>
        <mxCell id="MECrzSI235uCt05ITjjR-2" value="" style="edgeStyle=orthogonalEdgeStyle;rounded=0;orthogonalLoop=1;jettySize=auto;html=1;" parent="WIyWlLk6GJQsqaUBKTNV-1" source="MECrzSI235uCt05ITjjR-4" target="MECrzSI235uCt05ITjjR-6" edge="1">
          <mxGeometry relative="1" as="geometry" />
        </mxCell>
        <mxCell id="MECrzSI235uCt05ITjjR-3" value="" style="edgeStyle=orthogonalEdgeStyle;rounded=0;orthogonalLoop=1;jettySize=auto;html=1;" parent="WIyWlLk6GJQsqaUBKTNV-1" source="MECrzSI235uCt05ITjjR-4" target="MECrzSI235uCt05ITjjR-10" edge="1">
          <mxGeometry relative="1" as="geometry" />
        </mxCell>
        <mxCell id="MECrzSI235uCt05ITjjR-4" value="&lt;font style=&quot;font-size: 14px;&quot;&gt;Get Violations Data&lt;/font&gt;" style="whiteSpace=wrap;html=1;rounded=1;strokeWidth=2;" parent="WIyWlLk6GJQsqaUBKTNV-1" vertex="1">
          <mxGeometry x="24" y="1337.43" width="150" height="58" as="geometry" />
        </mxCell>
        <mxCell id="MECrzSI235uCt05ITjjR-6" value="vio_table" style="strokeWidth=2;html=1;shape=mxgraph.flowchart.database;whiteSpace=wrap;" parent="WIyWlLk6GJQsqaUBKTNV-1" vertex="1">
          <mxGeometry x="226.03999999999996" y="1341.93" width="102.96" height="49" as="geometry" />
        </mxCell>
        <mxCell id="MECrzSI235uCt05ITjjR-8" value="" style="edgeStyle=orthogonalEdgeStyle;rounded=0;orthogonalLoop=1;jettySize=auto;html=1;" parent="WIyWlLk6GJQsqaUBKTNV-1" source="MECrzSI235uCt05ITjjR-10" target="MECrzSI235uCt05ITjjR-12" edge="1">
          <mxGeometry relative="1" as="geometry" />
        </mxCell>
        <mxCell id="MECrzSI235uCt05ITjjR-9" value="" style="edgeStyle=orthogonalEdgeStyle;rounded=0;orthogonalLoop=1;jettySize=auto;html=1;" parent="WIyWlLk6GJQsqaUBKTNV-1" source="MECrzSI235uCt05ITjjR-10" target="MECrzSI235uCt05ITjjR-35" edge="1">
          <mxGeometry relative="1" as="geometry" />
        </mxCell>
        <mxCell id="MECrzSI235uCt05ITjjR-10" value="&lt;font style=&quot;font-size: 14px;&quot;&gt;Add Violation Data&lt;/font&gt;" style="whiteSpace=wrap;html=1;rounded=1;strokeWidth=2;" parent="WIyWlLk6GJQsqaUBKTNV-1" vertex="1">
          <mxGeometry x="24" y="1433.43" width="150" height="60" as="geometry" />
        </mxCell>
        <mxCell id="t4tHIIzPQDvXIn7TSngj-42" value="" style="edgeStyle=orthogonalEdgeStyle;rounded=0;orthogonalLoop=1;jettySize=auto;html=1;" parent="WIyWlLk6GJQsqaUBKTNV-1" source="MECrzSI235uCt05ITjjR-12" target="MECrzSI235uCt05ITjjR-14" edge="1">
          <mxGeometry relative="1" as="geometry" />
        </mxCell>
        <mxCell id="MECrzSI235uCt05ITjjR-12" value="&lt;div&gt;&lt;span style=&quot;font-size: 14px;&quot;&gt;input violation name, description, severity,&lt;/span&gt;&lt;/div&gt;&lt;div&gt;&lt;span style=&quot;font-size: 14px;&quot;&gt;&amp;nbsp;status = Pending&lt;/span&gt;&lt;/div&gt;" style="shape=parallelogram;perimeter=parallelogramPerimeter;whiteSpace=wrap;html=1;fixedSize=1;rounded=1;strokeWidth=2;" parent="WIyWlLk6GJQsqaUBKTNV-1" vertex="1">
          <mxGeometry x="184.18000000000006" y="1415.43" width="202.53" height="96" as="geometry" />
        </mxCell>
        <mxCell id="ShsvSv2e8H0igmz0pUxx-45" value="" style="edgeStyle=orthogonalEdgeStyle;rounded=0;orthogonalLoop=1;jettySize=auto;html=1;" parent="WIyWlLk6GJQsqaUBKTNV-1" source="MECrzSI235uCt05ITjjR-14" target="ShsvSv2e8H0igmz0pUxx-43" edge="1">
          <mxGeometry relative="1" as="geometry" />
        </mxCell>
        <mxCell id="MECrzSI235uCt05ITjjR-14" value="&lt;span style=&quot;font-size: 14px;&quot;&gt;Click add violation button&lt;/span&gt;" style="whiteSpace=wrap;html=1;rounded=1;strokeWidth=2;" parent="WIyWlLk6GJQsqaUBKTNV-1" vertex="1">
          <mxGeometry x="403.2399999999998" y="1432.51" width="118.54" height="60" as="geometry" />
        </mxCell>
        <mxCell id="MECrzSI235uCt05ITjjR-15" value="" style="edgeStyle=orthogonalEdgeStyle;rounded=0;orthogonalLoop=1;jettySize=auto;html=1;" parent="WIyWlLk6GJQsqaUBKTNV-1" target="MECrzSI235uCt05ITjjR-32" edge="1">
          <mxGeometry relative="1" as="geometry">
            <mxPoint x="722.4598478518174" y="1463.5169565217393" as="sourcePoint" />
          </mxGeometry>
        </mxCell>
        <mxCell id="MECrzSI235uCt05ITjjR-17" value="" style="edgeStyle=orthogonalEdgeStyle;rounded=0;orthogonalLoop=1;jettySize=auto;html=1;" parent="WIyWlLk6GJQsqaUBKTNV-1" source="MECrzSI235uCt05ITjjR-18" target="MECrzSI235uCt05ITjjR-20" edge="1">
          <mxGeometry relative="1" as="geometry" />
        </mxCell>
        <mxCell id="MECrzSI235uCt05ITjjR-18" value="Delete Violation Data" style="whiteSpace=wrap;html=1;rounded=1;strokeWidth=2;fontSize=14;" parent="WIyWlLk6GJQsqaUBKTNV-1" vertex="1">
          <mxGeometry x="24" y="1637.43" width="150" height="60" as="geometry" />
        </mxCell>
        <mxCell id="ShsvSv2e8H0igmz0pUxx-38" value="" style="edgeStyle=orthogonalEdgeStyle;rounded=0;orthogonalLoop=1;jettySize=auto;html=1;" parent="WIyWlLk6GJQsqaUBKTNV-1" source="MECrzSI235uCt05ITjjR-20" target="ShsvSv2e8H0igmz0pUxx-35" edge="1">
          <mxGeometry relative="1" as="geometry" />
        </mxCell>
        <mxCell id="MECrzSI235uCt05ITjjR-20" value="Select Violation Data" style="whiteSpace=wrap;html=1;rounded=1;strokeWidth=2;fontSize=14;" parent="WIyWlLk6GJQsqaUBKTNV-1" vertex="1">
          <mxGeometry x="200.0999999999999" y="1636.43" width="99.22" height="60" as="geometry" />
        </mxCell>
        <mxCell id="MECrzSI235uCt05ITjjR-21" value="" style="edgeStyle=orthogonalEdgeStyle;rounded=0;orthogonalLoop=1;jettySize=auto;html=1;" parent="WIyWlLk6GJQsqaUBKTNV-1" source="MECrzSI235uCt05ITjjR-25" target="ShsvSv2e8H0igmz0pUxx-32" edge="1">
          <mxGeometry relative="1" as="geometry">
            <mxPoint x="570.4799999999996" y="1667.43" as="targetPoint" />
          </mxGeometry>
        </mxCell>
        <mxCell id="MECrzSI235uCt05ITjjR-22" value="Yes" style="edgeLabel;html=1;align=center;verticalAlign=middle;resizable=0;points=[];" parent="MECrzSI235uCt05ITjjR-21" vertex="1" connectable="0">
          <mxGeometry x="0.0193" y="3" relative="1" as="geometry">
            <mxPoint y="1" as="offset" />
          </mxGeometry>
        </mxCell>
        <mxCell id="MECrzSI235uCt05ITjjR-23" value="" style="edgeStyle=orthogonalEdgeStyle;rounded=0;orthogonalLoop=1;jettySize=auto;html=1;entryX=0.5;entryY=0;entryDx=0;entryDy=0;" parent="WIyWlLk6GJQsqaUBKTNV-1" source="MECrzSI235uCt05ITjjR-25" target="MECrzSI235uCt05ITjjR-44" edge="1">
          <mxGeometry relative="1" as="geometry">
            <mxPoint x="463.8099999999995" y="1787.43" as="targetPoint" />
          </mxGeometry>
        </mxCell>
        <mxCell id="MECrzSI235uCt05ITjjR-24" value="No" style="edgeLabel;html=1;align=center;verticalAlign=middle;resizable=0;points=[];" parent="MECrzSI235uCt05ITjjR-23" vertex="1" connectable="0">
          <mxGeometry x="-0.1325" y="2" relative="1" as="geometry">
            <mxPoint x="1" y="1" as="offset" />
          </mxGeometry>
        </mxCell>
        <mxCell id="MECrzSI235uCt05ITjjR-25" value="&lt;font style=&quot;font-size: 14px;&quot;&gt;are you&lt;/font&gt;&lt;div&gt;&lt;font style=&quot;font-size: 14px;&quot;&gt;sure?&lt;/font&gt;&lt;/div&gt;" style="rhombus;whiteSpace=wrap;html=1;rounded=1;strokeWidth=2;" parent="WIyWlLk6GJQsqaUBKTNV-1" vertex="1">
          <mxGeometry x="409.05999999999995" y="1627.43" width="109.5" height="80" as="geometry" />
        </mxCell>
        <mxCell id="MECrzSI235uCt05ITjjR-26" value="" style="edgeStyle=orthogonalEdgeStyle;rounded=0;orthogonalLoop=1;jettySize=auto;html=1;exitX=1;exitY=0.5;exitDx=0;exitDy=0;entryX=0;entryY=0.5;entryDx=0;entryDy=0;" parent="WIyWlLk6GJQsqaUBKTNV-1" source="ShsvSv2e8H0igmz0pUxx-32" edge="1">
          <mxGeometry relative="1" as="geometry">
            <mxPoint x="690.4800000000005" y="1667.43" as="sourcePoint" />
            <mxPoint x="667.0000000000009" y="1667.43" as="targetPoint" />
          </mxGeometry>
        </mxCell>
        <mxCell id="MECrzSI235uCt05ITjjR-28" value="" style="edgeStyle=orthogonalEdgeStyle;rounded=0;orthogonalLoop=1;jettySize=auto;html=1;" parent="WIyWlLk6GJQsqaUBKTNV-1" source="MECrzSI235uCt05ITjjR-29" edge="1">
          <mxGeometry relative="1" as="geometry">
            <mxPoint x="95.01999999999998" y="1337.43" as="targetPoint" />
          </mxGeometry>
        </mxCell>
        <mxCell id="MECrzSI235uCt05ITjjR-29" value="" style="verticalLabelPosition=bottom;verticalAlign=top;html=1;shape=offPageConnector;rounded=0;size=0.5;" parent="WIyWlLk6GJQsqaUBKTNV-1" vertex="1">
          <mxGeometry x="65.01999999999998" y="1241.43" width="60" height="60" as="geometry" />
        </mxCell>
        <mxCell id="MECrzSI235uCt05ITjjR-32" value="5" style="ellipse;whiteSpace=wrap;html=1;rounded=1;strokeWidth=2;fontSize=14;" parent="WIyWlLk6GJQsqaUBKTNV-1" vertex="1">
          <mxGeometry x="748.1800000000003" y="1436.26" width="55.46" height="52.5" as="geometry" />
        </mxCell>
        <mxCell id="MECrzSI235uCt05ITjjR-34" value="" style="edgeStyle=orthogonalEdgeStyle;rounded=0;orthogonalLoop=1;jettySize=auto;html=1;" parent="WIyWlLk6GJQsqaUBKTNV-1" source="MECrzSI235uCt05ITjjR-35" target="MECrzSI235uCt05ITjjR-18" edge="1">
          <mxGeometry relative="1" as="geometry" />
        </mxCell>
        <mxCell id="t4tHIIzPQDvXIn7TSngj-47" value="" style="edgeStyle=orthogonalEdgeStyle;rounded=0;orthogonalLoop=1;jettySize=auto;html=1;entryX=0;entryY=0.5;entryDx=0;entryDy=0;" parent="WIyWlLk6GJQsqaUBKTNV-1" source="MECrzSI235uCt05ITjjR-35" target="t4tHIIzPQDvXIn7TSngj-43" edge="1">
          <mxGeometry relative="1" as="geometry" />
        </mxCell>
        <mxCell id="MECrzSI235uCt05ITjjR-35" value="&lt;font style=&quot;font-size: 14px;&quot;&gt;Edit Violation Data&lt;/font&gt;" style="whiteSpace=wrap;html=1;rounded=1;strokeWidth=2;" parent="WIyWlLk6GJQsqaUBKTNV-1" vertex="1">
          <mxGeometry x="24" y="1537.68" width="150" height="60" as="geometry" />
        </mxCell>
        <mxCell id="ShsvSv2e8H0igmz0pUxx-46" value="" style="edgeStyle=orthogonalEdgeStyle;rounded=0;orthogonalLoop=1;jettySize=auto;html=1;" parent="WIyWlLk6GJQsqaUBKTNV-1" source="MECrzSI235uCt05ITjjR-39" target="ShsvSv2e8H0igmz0pUxx-44" edge="1">
          <mxGeometry relative="1" as="geometry" />
        </mxCell>
        <mxCell id="MECrzSI235uCt05ITjjR-39" value="&lt;span style=&quot;font-size: 14px;&quot;&gt;Click edit violation button&lt;/span&gt;" style="whiteSpace=wrap;html=1;rounded=1;strokeWidth=2;" parent="WIyWlLk6GJQsqaUBKTNV-1" vertex="1">
          <mxGeometry x="403.2399999999998" y="1536.43" width="118.54" height="60" as="geometry" />
        </mxCell>
        <mxCell id="MECrzSI235uCt05ITjjR-40" value="" style="edgeStyle=orthogonalEdgeStyle;rounded=0;orthogonalLoop=1;jettySize=auto;html=1;" parent="WIyWlLk6GJQsqaUBKTNV-1" target="MECrzSI235uCt05ITjjR-42" edge="1">
          <mxGeometry relative="1" as="geometry">
            <mxPoint x="722.4598478518174" y="1567.5169565217393" as="sourcePoint" />
          </mxGeometry>
        </mxCell>
        <mxCell id="MECrzSI235uCt05ITjjR-42" value="5" style="ellipse;whiteSpace=wrap;html=1;rounded=1;strokeWidth=2;fontSize=14;" parent="WIyWlLk6GJQsqaUBKTNV-1" vertex="1">
          <mxGeometry x="748.1800000000003" y="1541.43" width="55.46" height="52.5" as="geometry" />
        </mxCell>
        <mxCell id="MECrzSI235uCt05ITjjR-43" value="5" style="ellipse;whiteSpace=wrap;html=1;rounded=1;strokeWidth=2;fontSize=14;" parent="WIyWlLk6GJQsqaUBKTNV-1" vertex="1">
          <mxGeometry x="748.1800000000003" y="1641.18" width="55.46" height="52.5" as="geometry" />
        </mxCell>
        <mxCell id="MECrzSI235uCt05ITjjR-44" value="5" style="ellipse;whiteSpace=wrap;html=1;rounded=1;strokeWidth=2;fontSize=14;" parent="WIyWlLk6GJQsqaUBKTNV-1" vertex="1">
          <mxGeometry x="436.48" y="1744.43" width="55.46" height="52.5" as="geometry" />
        </mxCell>
        <mxCell id="21Ma2qsHcwFOpxgYxjZl-175" value="" style="edgeStyle=orthogonalEdgeStyle;rounded=0;orthogonalLoop=1;jettySize=auto;html=1;" parent="WIyWlLk6GJQsqaUBKTNV-1" source="21Ma2qsHcwFOpxgYxjZl-177" target="21Ma2qsHcwFOpxgYxjZl-178" edge="1">
          <mxGeometry relative="1" as="geometry" />
        </mxCell>
        <mxCell id="21Ma2qsHcwFOpxgYxjZl-192" value="Yes" style="edgeLabel;html=1;align=center;verticalAlign=middle;resizable=0;points=[];" parent="21Ma2qsHcwFOpxgYxjZl-175" vertex="1" connectable="0">
          <mxGeometry x="-0.0429" relative="1" as="geometry">
            <mxPoint as="offset" />
          </mxGeometry>
        </mxCell>
        <mxCell id="21Ma2qsHcwFOpxgYxjZl-176" value="" style="edgeStyle=orthogonalEdgeStyle;rounded=0;orthogonalLoop=1;jettySize=auto;html=1;" parent="WIyWlLk6GJQsqaUBKTNV-1" source="21Ma2qsHcwFOpxgYxjZl-177" target="21Ma2qsHcwFOpxgYxjZl-179" edge="1">
          <mxGeometry relative="1" as="geometry" />
        </mxCell>
        <mxCell id="21Ma2qsHcwFOpxgYxjZl-193" value="No" style="edgeLabel;html=1;align=center;verticalAlign=middle;resizable=0;points=[];" parent="21Ma2qsHcwFOpxgYxjZl-176" vertex="1" connectable="0">
          <mxGeometry x="-0.4731" relative="1" as="geometry">
            <mxPoint as="offset" />
          </mxGeometry>
        </mxCell>
        <mxCell id="21Ma2qsHcwFOpxgYxjZl-177" value="&lt;font style=&quot;font-size: 14px;&quot;&gt;are you&lt;/font&gt;&lt;div&gt;&lt;font style=&quot;font-size: 14px;&quot;&gt;sure?&lt;/font&gt;&lt;/div&gt;" style="rhombus;whiteSpace=wrap;html=1;rounded=1;strokeWidth=2;" parent="WIyWlLk6GJQsqaUBKTNV-1" vertex="1">
          <mxGeometry x="413.9999999999999" y="981" width="109.5" height="80" as="geometry" />
        </mxCell>
        <mxCell id="21Ma2qsHcwFOpxgYxjZl-178" value="&lt;font style=&quot;font-size: 14px;&quot;&gt;1&lt;/font&gt;" style="ellipse;whiteSpace=wrap;html=1;rounded=1;strokeWidth=2;" parent="WIyWlLk6GJQsqaUBKTNV-1" vertex="1">
          <mxGeometry x="576.72" y="994.25" width="49.6" height="53.5" as="geometry" />
        </mxCell>
        <mxCell id="21Ma2qsHcwFOpxgYxjZl-179" value="3" style="ellipse;whiteSpace=wrap;html=1;rounded=1;strokeWidth=2;" parent="WIyWlLk6GJQsqaUBKTNV-1" vertex="1">
          <mxGeometry x="437.88" y="1092" width="60.32" height="48" as="geometry" />
        </mxCell>
        <mxCell id="ShsvSv2e8H0igmz0pUxx-2" style="edgeStyle=orthogonalEdgeStyle;rounded=0;orthogonalLoop=1;jettySize=auto;html=1;entryX=0;entryY=0.5;entryDx=0;entryDy=0;" parent="WIyWlLk6GJQsqaUBKTNV-1" source="ShsvSv2e8H0igmz0pUxx-1" target="Uc0-LxrvivF567ajh-_D-5" edge="1">
          <mxGeometry relative="1" as="geometry">
            <mxPoint x="252" y="276" as="targetPoint" />
          </mxGeometry>
        </mxCell>
        <mxCell id="ShsvSv2e8H0igmz0pUxx-1" value="Register Form" style="shape=parallelogram;perimeter=parallelogramPerimeter;whiteSpace=wrap;html=1;fixedSize=1;strokeWidth=2;" parent="WIyWlLk6GJQsqaUBKTNV-1" vertex="1">
          <mxGeometry x="150.96" y="190" width="113" height="50" as="geometry" />
        </mxCell>
        <mxCell id="ShsvSv2e8H0igmz0pUxx-3" value="Student" style="shape=parallelogram;perimeter=parallelogramPerimeter;whiteSpace=wrap;html=1;fixedSize=1;strokeWidth=2;" parent="WIyWlLk6GJQsqaUBKTNV-1" vertex="1">
          <mxGeometry x="198.35000000000002" y="805" width="130" height="42" as="geometry" />
        </mxCell>
        <mxCell id="X0sMikLkQmicngNCFKQL-63" value="" style="edgeStyle=orthogonalEdgeStyle;rounded=0;orthogonalLoop=1;jettySize=auto;html=1;" parent="WIyWlLk6GJQsqaUBKTNV-1" source="ShsvSv2e8H0igmz0pUxx-5" target="X0sMikLkQmicngNCFKQL-58" edge="1">
          <mxGeometry relative="1" as="geometry" />
        </mxCell>
        <mxCell id="ShsvSv2e8H0igmz0pUxx-5" value="Violation" style="shape=parallelogram;perimeter=parallelogramPerimeter;whiteSpace=wrap;html=1;fixedSize=1;strokeWidth=2;" parent="WIyWlLk6GJQsqaUBKTNV-1" vertex="1">
          <mxGeometry x="195.54000000000002" y="865.53" width="130" height="42" as="geometry" />
        </mxCell>
        <mxCell id="t4tHIIzPQDvXIn7TSngj-33" value="" style="edgeStyle=orthogonalEdgeStyle;rounded=0;orthogonalLoop=1;jettySize=auto;html=1;" parent="WIyWlLk6GJQsqaUBKTNV-1" source="ShsvSv2e8H0igmz0pUxx-6" target="ShsvSv2e8H0igmz0pUxx-11" edge="1">
          <mxGeometry relative="1" as="geometry" />
        </mxCell>
        <mxCell id="X0sMikLkQmicngNCFKQL-57" value="" style="edgeStyle=orthogonalEdgeStyle;rounded=0;orthogonalLoop=1;jettySize=auto;html=1;entryX=0.52;entryY=-0.002;entryDx=0;entryDy=0;entryPerimeter=0;" parent="WIyWlLk6GJQsqaUBKTNV-1" source="ShsvSv2e8H0igmz0pUxx-6" target="ShsvSv2e8H0igmz0pUxx-3" edge="1">
          <mxGeometry relative="1" as="geometry" />
        </mxCell>
        <mxCell id="ShsvSv2e8H0igmz0pUxx-6" value="User Page" style="shape=parallelogram;perimeter=parallelogramPerimeter;whiteSpace=wrap;html=1;fixedSize=1;strokeWidth=2;" parent="WIyWlLk6GJQsqaUBKTNV-1" vertex="1">
          <mxGeometry x="206.57999999999998" y="740.08" width="118.96" height="42" as="geometry" />
        </mxCell>
        <mxCell id="ShsvSv2e8H0igmz0pUxx-8" value="Log out" style="shape=parallelogram;perimeter=parallelogramPerimeter;whiteSpace=wrap;html=1;fixedSize=1;strokeWidth=2;" parent="WIyWlLk6GJQsqaUBKTNV-1" vertex="1">
          <mxGeometry x="195.54000000000002" y="1000" width="130" height="42" as="geometry" />
        </mxCell>
        <mxCell id="X0sMikLkQmicngNCFKQL-4" value="" style="edgeStyle=orthogonalEdgeStyle;rounded=0;orthogonalLoop=1;jettySize=auto;html=1;entryX=0;entryY=0.5;entryDx=0;entryDy=0;" parent="WIyWlLk6GJQsqaUBKTNV-1" source="ShsvSv2e8H0igmz0pUxx-11" target="X0sMikLkQmicngNCFKQL-3" edge="1">
          <mxGeometry relative="1" as="geometry" />
        </mxCell>
        <mxCell id="X0sMikLkQmicngNCFKQL-5" value="" style="edgeStyle=orthogonalEdgeStyle;rounded=0;orthogonalLoop=1;jettySize=auto;html=1;entryX=0;entryY=0.5;entryDx=0;entryDy=0;" parent="WIyWlLk6GJQsqaUBKTNV-1" source="ShsvSv2e8H0igmz0pUxx-11" target="X0sMikLkQmicngNCFKQL-2" edge="1">
          <mxGeometry relative="1" as="geometry">
            <Array as="points">
              <mxPoint x="491" y="761" />
              <mxPoint x="491" y="780" />
              <mxPoint x="492" y="780" />
              <mxPoint x="492" y="779" />
            </Array>
          </mxGeometry>
        </mxCell>
        <mxCell id="ShsvSv2e8H0igmz0pUxx-11" value="User Dashboard" style="shape=parallelogram;perimeter=parallelogramPerimeter;whiteSpace=wrap;html=1;fixedSize=1;strokeWidth=2;" parent="WIyWlLk6GJQsqaUBKTNV-1" vertex="1">
          <mxGeometry x="341.18999999999994" y="740.08" width="130" height="42" as="geometry" />
        </mxCell>
        <mxCell id="ShsvSv2e8H0igmz0pUxx-14" style="edgeStyle=orthogonalEdgeStyle;rounded=0;orthogonalLoop=1;jettySize=auto;html=1;entryX=0;entryY=0.5;entryDx=0;entryDy=0;" parent="WIyWlLk6GJQsqaUBKTNV-1" target="J2Y3ej7FawQqF2J4Sy8i-85" edge="1">
          <mxGeometry relative="1" as="geometry">
            <mxPoint x="1556.85" y="983" as="targetPoint" />
            <Array as="points" />
            <mxPoint x="1550.6299619630327" y="1002.0434782608697" as="sourcePoint" />
          </mxGeometry>
        </mxCell>
        <mxCell id="ShsvSv2e8H0igmz0pUxx-18" style="edgeStyle=orthogonalEdgeStyle;rounded=0;orthogonalLoop=1;jettySize=auto;html=1;entryX=0.03;entryY=0.595;entryDx=0;entryDy=0;entryPerimeter=0;" parent="WIyWlLk6GJQsqaUBKTNV-1" source="ShsvSv2e8H0igmz0pUxx-17" edge="1">
          <mxGeometry relative="1" as="geometry">
            <mxPoint x="1496.8338000000003" y="1006.9875000000002" as="targetPoint" />
            <Array as="points">
              <mxPoint x="1472.85" y="1007" />
              <mxPoint x="1472.85" y="1007" />
            </Array>
          </mxGeometry>
        </mxCell>
        <mxCell id="ShsvSv2e8H0igmz0pUxx-17" value="Student&amp;nbsp;&lt;div&gt;Deleted Successfully&lt;/div&gt;" style="shape=parallelogram;perimeter=parallelogramPerimeter;whiteSpace=wrap;html=1;fixedSize=1;strokeWidth=2;" parent="WIyWlLk6GJQsqaUBKTNV-1" vertex="1">
          <mxGeometry x="1376.85" y="980.25" width="101.9" height="48" as="geometry" />
        </mxCell>
        <mxCell id="ShsvSv2e8H0igmz0pUxx-20" style="edgeStyle=orthogonalEdgeStyle;rounded=0;orthogonalLoop=1;jettySize=auto;html=1;entryX=0;entryY=0.5;entryDx=0;entryDy=0;" parent="WIyWlLk6GJQsqaUBKTNV-1" source="ShsvSv2e8H0igmz0pUxx-19" edge="1">
          <mxGeometry relative="1" as="geometry">
            <mxPoint x="1500.6900000000164" y="798" as="targetPoint" />
            <Array as="points">
              <mxPoint x="1484.85" y="798" />
              <mxPoint x="1484.85" y="798" />
            </Array>
          </mxGeometry>
        </mxCell>
        <mxCell id="ShsvSv2e8H0igmz0pUxx-19" value="Student&amp;nbsp;&lt;div&gt;Added Successfully&lt;/div&gt;" style="shape=parallelogram;perimeter=parallelogramPerimeter;whiteSpace=wrap;html=1;fixedSize=1;strokeWidth=2;" parent="WIyWlLk6GJQsqaUBKTNV-1" vertex="1">
          <mxGeometry x="1388.71" y="774" width="101.9" height="48" as="geometry" />
        </mxCell>
        <mxCell id="ShsvSv2e8H0igmz0pUxx-21" value="Student&amp;nbsp;&lt;div&gt;Edited Successfully&lt;/div&gt;" style="shape=parallelogram;perimeter=parallelogramPerimeter;whiteSpace=wrap;html=1;fixedSize=1;strokeWidth=2;" parent="WIyWlLk6GJQsqaUBKTNV-1" vertex="1">
          <mxGeometry x="1382.61" y="878.25" width="102.24" height="48" as="geometry" />
        </mxCell>
        <mxCell id="ShsvSv2e8H0igmz0pUxx-25" style="edgeStyle=orthogonalEdgeStyle;rounded=0;orthogonalLoop=1;jettySize=auto;html=1;entryX=0;entryY=0.5;entryDx=0;entryDy=0;" parent="WIyWlLk6GJQsqaUBKTNV-1" source="ShsvSv2e8H0igmz0pUxx-21" edge="1">
          <mxGeometry relative="1" as="geometry">
            <Array as="points">
              <mxPoint x="1484.85" y="902" />
            </Array>
            <mxPoint x="1500.6900000000164" y="902.25" as="targetPoint" />
          </mxGeometry>
        </mxCell>
        <mxCell id="t4tHIIzPQDvXIn7TSngj-31" value="" style="edgeStyle=orthogonalEdgeStyle;rounded=0;orthogonalLoop=1;jettySize=auto;html=1;" parent="WIyWlLk6GJQsqaUBKTNV-1" source="ShsvSv2e8H0igmz0pUxx-28" target="ShsvSv2e8H0igmz0pUxx-6" edge="1">
          <mxGeometry relative="1" as="geometry" />
        </mxCell>
        <mxCell id="ShsvSv2e8H0igmz0pUxx-28" value="3" style="ellipse;whiteSpace=wrap;html=1;rounded=1;strokeWidth=2;" parent="WIyWlLk6GJQsqaUBKTNV-1" vertex="1">
          <mxGeometry x="235.90000000000003" y="669.25" width="60.32" height="48" as="geometry" />
        </mxCell>
        <mxCell id="ShsvSv2e8H0igmz0pUxx-32" value="Violation&lt;div&gt;Deleted Successfully&lt;/div&gt;" style="shape=parallelogram;perimeter=parallelogramPerimeter;whiteSpace=wrap;html=1;fixedSize=1;strokeWidth=2;" parent="WIyWlLk6GJQsqaUBKTNV-1" vertex="1">
          <mxGeometry x="546.9799999999996" y="1643.43" width="101.9" height="48" as="geometry" />
        </mxCell>
        <mxCell id="ShsvSv2e8H0igmz0pUxx-34" style="edgeStyle=orthogonalEdgeStyle;rounded=0;orthogonalLoop=1;jettySize=auto;html=1;entryX=0;entryY=0.5;entryDx=0;entryDy=0;" parent="WIyWlLk6GJQsqaUBKTNV-1" target="MECrzSI235uCt05ITjjR-43" edge="1">
          <mxGeometry relative="1" as="geometry">
            <mxPoint x="722.4598478518174" y="1667.5169565217393" as="sourcePoint" />
          </mxGeometry>
        </mxCell>
        <mxCell id="ShsvSv2e8H0igmz0pUxx-42" value="" style="edgeStyle=orthogonalEdgeStyle;rounded=0;orthogonalLoop=1;jettySize=auto;html=1;entryX=0.03;entryY=0.489;entryDx=0;entryDy=0;entryPerimeter=0;" parent="WIyWlLk6GJQsqaUBKTNV-1" source="ShsvSv2e8H0igmz0pUxx-35" target="MECrzSI235uCt05ITjjR-25" edge="1">
          <mxGeometry relative="1" as="geometry" />
        </mxCell>
        <mxCell id="ShsvSv2e8H0igmz0pUxx-35" value="&lt;span style=&quot;font-size: 14px;&quot;&gt;Click delete violation button&lt;/span&gt;" style="whiteSpace=wrap;html=1;rounded=1;strokeWidth=2;" parent="WIyWlLk6GJQsqaUBKTNV-1" vertex="1">
          <mxGeometry x="314.2399999999998" y="1636.43" width="78.22" height="60" as="geometry" />
        </mxCell>
        <mxCell id="ShsvSv2e8H0igmz0pUxx-48" value="" style="edgeStyle=orthogonalEdgeStyle;rounded=0;orthogonalLoop=1;jettySize=auto;html=1;entryX=0;entryY=0.5;entryDx=0;entryDy=0;" parent="WIyWlLk6GJQsqaUBKTNV-1" source="ShsvSv2e8H0igmz0pUxx-43" edge="1">
          <mxGeometry relative="1" as="geometry">
            <mxPoint x="667.0000000000009" y="1463.43" as="targetPoint" />
            <Array as="points">
              <mxPoint x="662.2399999999998" y="1462.43" />
            </Array>
          </mxGeometry>
        </mxCell>
        <mxCell id="ShsvSv2e8H0igmz0pUxx-43" value="Violation&lt;div&gt;Added Successfully&lt;/div&gt;" style="shape=parallelogram;perimeter=parallelogramPerimeter;whiteSpace=wrap;html=1;fixedSize=1;strokeWidth=2;" parent="WIyWlLk6GJQsqaUBKTNV-1" vertex="1">
          <mxGeometry x="546.9800000000005" y="1438.51" width="101.9" height="48" as="geometry" />
        </mxCell>
        <mxCell id="ShsvSv2e8H0igmz0pUxx-49" value="" style="edgeStyle=orthogonalEdgeStyle;rounded=0;orthogonalLoop=1;jettySize=auto;html=1;entryX=-0.011;entryY=0.481;entryDx=0;entryDy=0;entryPerimeter=0;" parent="WIyWlLk6GJQsqaUBKTNV-1" source="ShsvSv2e8H0igmz0pUxx-44" edge="1">
          <mxGeometry relative="1" as="geometry">
            <mxPoint x="666.38994" y="1566.4325000000001" as="targetPoint" />
            <Array as="points">
              <mxPoint x="650.2399999999998" y="1566.43" />
              <mxPoint x="650.2399999999998" y="1566.43" />
            </Array>
          </mxGeometry>
        </mxCell>
        <mxCell id="ShsvSv2e8H0igmz0pUxx-44" value="Violation&lt;div&gt;Edited Successfully&lt;/div&gt;" style="shape=parallelogram;perimeter=parallelogramPerimeter;whiteSpace=wrap;html=1;fixedSize=1;strokeWidth=2;" parent="WIyWlLk6GJQsqaUBKTNV-1" vertex="1">
          <mxGeometry x="546.9800000000005" y="1543.4299999999998" width="101.9" height="48" as="geometry" />
        </mxCell>
        <mxCell id="ShsvSv2e8H0igmz0pUxx-143" value="" style="edgeStyle=orthogonalEdgeStyle;rounded=0;orthogonalLoop=1;jettySize=auto;html=1;" parent="WIyWlLk6GJQsqaUBKTNV-1" source="ShsvSv2e8H0igmz0pUxx-50" target="ShsvSv2e8H0igmz0pUxx-52" edge="1">
          <mxGeometry relative="1" as="geometry" />
        </mxCell>
        <mxCell id="X0sMikLkQmicngNCFKQL-75" value="" style="edgeStyle=orthogonalEdgeStyle;rounded=0;orthogonalLoop=1;jettySize=auto;html=1;" parent="WIyWlLk6GJQsqaUBKTNV-1" source="ShsvSv2e8H0igmz0pUxx-50" target="ShsvSv2e8H0igmz0pUxx-86" edge="1">
          <mxGeometry relative="1" as="geometry" />
        </mxCell>
        <mxCell id="ShsvSv2e8H0igmz0pUxx-50" value="Admin Page" style="shape=parallelogram;perimeter=parallelogramPerimeter;whiteSpace=wrap;html=1;fixedSize=1;strokeWidth=2;" parent="WIyWlLk6GJQsqaUBKTNV-1" vertex="1">
          <mxGeometry x="864.8499999999999" y="133.48000000000002" width="118.96" height="42" as="geometry" />
        </mxCell>
        <mxCell id="X0sMikLkQmicngNCFKQL-98" value="" style="edgeStyle=orthogonalEdgeStyle;rounded=0;orthogonalLoop=1;jettySize=auto;html=1;entryX=0.5;entryY=1;entryDx=0;entryDy=0;" parent="WIyWlLk6GJQsqaUBKTNV-1" source="ShsvSv2e8H0igmz0pUxx-52" target="X0sMikLkQmicngNCFKQL-82" edge="1">
          <mxGeometry relative="1" as="geometry" />
        </mxCell>
        <mxCell id="ShsvSv2e8H0igmz0pUxx-52" value="Student" style="shape=parallelogram;perimeter=parallelogramPerimeter;whiteSpace=wrap;html=1;fixedSize=1;strokeWidth=2;" parent="WIyWlLk6GJQsqaUBKTNV-1" vertex="1">
          <mxGeometry x="1002.3299999999999" y="133.48000000000002" width="118.96" height="42" as="geometry" />
        </mxCell>
        <mxCell id="t4tHIIzPQDvXIn7TSngj-2" value="" style="edgeStyle=orthogonalEdgeStyle;rounded=0;orthogonalLoop=1;jettySize=auto;html=1;" parent="WIyWlLk6GJQsqaUBKTNV-1" source="ShsvSv2e8H0igmz0pUxx-53" target="t4tHIIzPQDvXIn7TSngj-1" edge="1">
          <mxGeometry relative="1" as="geometry">
            <Array as="points">
              <mxPoint x="1254.33" y="161.72000000000003" />
              <mxPoint x="1254.33" y="161.72000000000003" />
            </Array>
          </mxGeometry>
        </mxCell>
        <mxCell id="X0sMikLkQmicngNCFKQL-99" value="" style="edgeStyle=orthogonalEdgeStyle;rounded=0;orthogonalLoop=1;jettySize=auto;html=1;entryX=0.5;entryY=1;entryDx=0;entryDy=0;" parent="WIyWlLk6GJQsqaUBKTNV-1" source="ShsvSv2e8H0igmz0pUxx-53" target="X0sMikLkQmicngNCFKQL-83" edge="1">
          <mxGeometry relative="1" as="geometry" />
        </mxCell>
        <mxCell id="ShsvSv2e8H0igmz0pUxx-53" value="Violation" style="shape=parallelogram;perimeter=parallelogramPerimeter;whiteSpace=wrap;html=1;fixedSize=1;strokeWidth=2;" parent="WIyWlLk6GJQsqaUBKTNV-1" vertex="1">
          <mxGeometry x="1130.24" y="133.48000000000002" width="118.96" height="42" as="geometry" />
        </mxCell>
        <mxCell id="t4tHIIzPQDvXIn7TSngj-15" value="" style="edgeStyle=orthogonalEdgeStyle;rounded=0;orthogonalLoop=1;jettySize=auto;html=1;" parent="WIyWlLk6GJQsqaUBKTNV-1" source="ShsvSv2e8H0igmz0pUxx-55" target="t4tHIIzPQDvXIn7TSngj-13" edge="1">
          <mxGeometry relative="1" as="geometry" />
        </mxCell>
        <mxCell id="X0sMikLkQmicngNCFKQL-104" value="" style="edgeStyle=orthogonalEdgeStyle;rounded=0;orthogonalLoop=1;jettySize=auto;html=1;" parent="WIyWlLk6GJQsqaUBKTNV-1" source="ShsvSv2e8H0igmz0pUxx-55" edge="1">
          <mxGeometry relative="1" as="geometry">
            <mxPoint x="1436.1199999999997" y="107.21000000000004" as="targetPoint" />
          </mxGeometry>
        </mxCell>
        <mxCell id="ShsvSv2e8H0igmz0pUxx-55" value="Users" style="shape=parallelogram;perimeter=parallelogramPerimeter;whiteSpace=wrap;html=1;fixedSize=1;strokeWidth=2;" parent="WIyWlLk6GJQsqaUBKTNV-1" vertex="1">
          <mxGeometry x="1377.5" y="133.48000000000002" width="118.96" height="42" as="geometry" />
        </mxCell>
        <mxCell id="X0sMikLkQmicngNCFKQL-79" value="" style="edgeStyle=orthogonalEdgeStyle;rounded=0;orthogonalLoop=1;jettySize=auto;html=1;entryX=0.5;entryY=0;entryDx=0;entryDy=0;" parent="WIyWlLk6GJQsqaUBKTNV-1" source="ShsvSv2e8H0igmz0pUxx-86" target="X0sMikLkQmicngNCFKQL-77" edge="1">
          <mxGeometry relative="1" as="geometry">
            <Array as="points">
              <mxPoint x="924.05" y="269.23" />
              <mxPoint x="1074.05" y="269.23" />
            </Array>
          </mxGeometry>
        </mxCell>
        <mxCell id="X0sMikLkQmicngNCFKQL-80" value="" style="edgeStyle=orthogonalEdgeStyle;rounded=0;orthogonalLoop=1;jettySize=auto;html=1;entryX=0.5;entryY=0;entryDx=0;entryDy=0;" parent="WIyWlLk6GJQsqaUBKTNV-1" source="ShsvSv2e8H0igmz0pUxx-86" target="X0sMikLkQmicngNCFKQL-78" edge="1">
          <mxGeometry relative="1" as="geometry">
            <Array as="points">
              <mxPoint x="924.05" y="269.23" />
              <mxPoint x="1221.05" y="269.23" />
            </Array>
          </mxGeometry>
        </mxCell>
        <mxCell id="X0sMikLkQmicngNCFKQL-81" value="" style="edgeStyle=orthogonalEdgeStyle;rounded=0;orthogonalLoop=1;jettySize=auto;html=1;" parent="WIyWlLk6GJQsqaUBKTNV-1" source="ShsvSv2e8H0igmz0pUxx-86" target="X0sMikLkQmicngNCFKQL-76" edge="1">
          <mxGeometry relative="1" as="geometry" />
        </mxCell>
        <mxCell id="ShsvSv2e8H0igmz0pUxx-86" value="Admin Dashboard" style="shape=parallelogram;perimeter=parallelogramPerimeter;whiteSpace=wrap;html=1;fixedSize=1;strokeWidth=2;" parent="WIyWlLk6GJQsqaUBKTNV-1" vertex="1">
          <mxGeometry x="859.3299999999998" y="208.72000000000003" width="130" height="42" as="geometry" />
        </mxCell>
        <mxCell id="ShsvSv2e8H0igmz0pUxx-144" value="" style="edgeStyle=orthogonalEdgeStyle;rounded=0;orthogonalLoop=1;jettySize=auto;html=1;entryX=0;entryY=0.5;entryDx=0;entryDy=0;exitX=1;exitY=0.5;exitDx=0;exitDy=0;" parent="WIyWlLk6GJQsqaUBKTNV-1" source="ShsvSv2e8H0igmz0pUxx-52" target="ShsvSv2e8H0igmz0pUxx-53" edge="1">
          <mxGeometry relative="1" as="geometry">
            <mxPoint x="1110.33" y="197.72000000000003" as="sourcePoint" />
            <mxPoint x="1098.3399999999997" y="226.72000000000003" as="targetPoint" />
          </mxGeometry>
        </mxCell>
        <mxCell id="t4tHIIzPQDvXIn7TSngj-10" value="" style="edgeStyle=orthogonalEdgeStyle;rounded=0;orthogonalLoop=1;jettySize=auto;html=1;" parent="WIyWlLk6GJQsqaUBKTNV-1" source="ShsvSv2e8H0igmz0pUxx-146" target="ShsvSv2e8H0igmz0pUxx-225" edge="1">
          <mxGeometry relative="1" as="geometry" />
        </mxCell>
        <mxCell id="ShsvSv2e8H0igmz0pUxx-146" value="Log Out" style="shape=parallelogram;perimeter=parallelogramPerimeter;whiteSpace=wrap;html=1;fixedSize=1;strokeWidth=2;" parent="WIyWlLk6GJQsqaUBKTNV-1" vertex="1">
          <mxGeometry x="1508.29" y="301.9100000000001" width="118.96" height="42" as="geometry" />
        </mxCell>
        <mxCell id="ShsvSv2e8H0igmz0pUxx-162" value="" style="edgeStyle=orthogonalEdgeStyle;rounded=0;orthogonalLoop=1;jettySize=auto;html=1;" parent="WIyWlLk6GJQsqaUBKTNV-1" edge="1">
          <mxGeometry relative="1" as="geometry">
            <mxPoint x="994.7299999999996" y="1349.8600000000004" as="sourcePoint" />
            <mxPoint x="1046.7699999999995" y="1349.8600000000004" as="targetPoint" />
          </mxGeometry>
        </mxCell>
        <mxCell id="ShsvSv2e8H0igmz0pUxx-163" value="" style="edgeStyle=orthogonalEdgeStyle;rounded=0;orthogonalLoop=1;jettySize=auto;html=1;exitX=0.48;exitY=1.005;exitDx=0;exitDy=0;exitPerimeter=0;entryX=0.482;entryY=-0.001;entryDx=0;entryDy=0;entryPerimeter=0;" parent="WIyWlLk6GJQsqaUBKTNV-1" source="ShsvSv2e8H0igmz0pUxx-164" target="ShsvSv2e8H0igmz0pUxx-170" edge="1">
          <mxGeometry relative="1" as="geometry" />
        </mxCell>
        <mxCell id="ShsvSv2e8H0igmz0pUxx-164" value="&lt;font style=&quot;font-size: 14px;&quot;&gt;Get Users Data&lt;/font&gt;" style="whiteSpace=wrap;html=1;rounded=1;strokeWidth=2;" parent="WIyWlLk6GJQsqaUBKTNV-1" vertex="1">
          <mxGeometry x="843.9999999999999" y="1322.3600000000001" width="150" height="58" as="geometry" />
        </mxCell>
        <mxCell id="ShsvSv2e8H0igmz0pUxx-166" value="user_table" style="strokeWidth=2;html=1;shape=mxgraph.flowchart.database;whiteSpace=wrap;" parent="WIyWlLk6GJQsqaUBKTNV-1" vertex="1">
          <mxGeometry x="1046.04" y="1326.8600000000001" width="102.96" height="49" as="geometry" />
        </mxCell>
        <mxCell id="ShsvSv2e8H0igmz0pUxx-168" value="" style="edgeStyle=orthogonalEdgeStyle;rounded=0;orthogonalLoop=1;jettySize=auto;html=1;" parent="WIyWlLk6GJQsqaUBKTNV-1" source="ShsvSv2e8H0igmz0pUxx-170" target="ShsvSv2e8H0igmz0pUxx-172" edge="1">
          <mxGeometry relative="1" as="geometry" />
        </mxCell>
        <mxCell id="ShsvSv2e8H0igmz0pUxx-169" value="" style="edgeStyle=orthogonalEdgeStyle;rounded=0;orthogonalLoop=1;jettySize=auto;html=1;exitX=0.485;exitY=0.999;exitDx=0;exitDy=0;exitPerimeter=0;entryX=0.485;entryY=-0.008;entryDx=0;entryDy=0;entryPerimeter=0;" parent="WIyWlLk6GJQsqaUBKTNV-1" source="ShsvSv2e8H0igmz0pUxx-170" target="ShsvSv2e8H0igmz0pUxx-191" edge="1">
          <mxGeometry relative="1" as="geometry" />
        </mxCell>
        <mxCell id="ShsvSv2e8H0igmz0pUxx-170" value="&lt;font style=&quot;font-size: 14px;&quot;&gt;Add User Data&lt;/font&gt;" style="whiteSpace=wrap;html=1;rounded=1;strokeWidth=2;" parent="WIyWlLk6GJQsqaUBKTNV-1" vertex="1">
          <mxGeometry x="843.7499999999999" y="1418.3600000000001" width="150" height="60" as="geometry" />
        </mxCell>
        <mxCell id="ShsvSv2e8H0igmz0pUxx-171" value="" style="edgeStyle=orthogonalEdgeStyle;rounded=0;orthogonalLoop=1;jettySize=auto;html=1;" parent="WIyWlLk6GJQsqaUBKTNV-1" source="ShsvSv2e8H0igmz0pUxx-172" target="ShsvSv2e8H0igmz0pUxx-174" edge="1">
          <mxGeometry relative="1" as="geometry" />
        </mxCell>
        <mxCell id="ShsvSv2e8H0igmz0pUxx-172" value="input full name, contact&amp;nbsp;&lt;div&gt;number, email, type, status&amp;nbsp;&lt;/div&gt;&lt;div&gt;and image&lt;/div&gt;" style="shape=parallelogram;perimeter=parallelogramPerimeter;whiteSpace=wrap;html=1;fixedSize=1;rounded=1;strokeWidth=2;" parent="WIyWlLk6GJQsqaUBKTNV-1" vertex="1">
          <mxGeometry x="1018.77" y="1406.3600000000001" width="192" height="84" as="geometry" />
        </mxCell>
        <mxCell id="ShsvSv2e8H0igmz0pUxx-173" value="" style="edgeStyle=orthogonalEdgeStyle;rounded=0;orthogonalLoop=1;jettySize=auto;html=1;entryX=0;entryY=0.5;entryDx=0;entryDy=0;" parent="WIyWlLk6GJQsqaUBKTNV-1" source="ShsvSv2e8H0igmz0pUxx-174" target="ShsvSv2e8H0igmz0pUxx-206" edge="1">
          <mxGeometry relative="1" as="geometry" />
        </mxCell>
        <mxCell id="ShsvSv2e8H0igmz0pUxx-174" value="&lt;font style=&quot;font-size: 14px;&quot;&gt;Click add&amp;nbsp;&lt;/font&gt;&lt;div&gt;&lt;font style=&quot;font-size: 14px;&quot;&gt;user button&lt;/font&gt;&lt;/div&gt;" style="whiteSpace=wrap;html=1;rounded=1;strokeWidth=2;" parent="WIyWlLk6GJQsqaUBKTNV-1" vertex="1">
          <mxGeometry x="1232.2800000000002" y="1418.3600000000001" width="82.31" height="60" as="geometry" />
        </mxCell>
        <mxCell id="ShsvSv2e8H0igmz0pUxx-175" value="" style="edgeStyle=orthogonalEdgeStyle;rounded=0;orthogonalLoop=1;jettySize=auto;html=1;" parent="WIyWlLk6GJQsqaUBKTNV-1" target="ShsvSv2e8H0igmz0pUxx-188" edge="1">
          <mxGeometry relative="1" as="geometry">
            <mxPoint x="1526.5199159894587" y="1448.2953846153844" as="sourcePoint" />
          </mxGeometry>
        </mxCell>
        <mxCell id="ShsvSv2e8H0igmz0pUxx-177" value="" style="edgeStyle=orthogonalEdgeStyle;rounded=0;orthogonalLoop=1;jettySize=auto;html=1;" parent="WIyWlLk6GJQsqaUBKTNV-1" source="ShsvSv2e8H0igmz0pUxx-178" target="ShsvSv2e8H0igmz0pUxx-180" edge="1">
          <mxGeometry relative="1" as="geometry" />
        </mxCell>
        <mxCell id="ShsvSv2e8H0igmz0pUxx-178" value="Delete User Data" style="whiteSpace=wrap;html=1;rounded=1;strokeWidth=2;fontSize=14;" parent="WIyWlLk6GJQsqaUBKTNV-1" vertex="1">
          <mxGeometry x="843.7499999999999" y="1622.3600000000004" width="150" height="60" as="geometry" />
        </mxCell>
        <mxCell id="ShsvSv2e8H0igmz0pUxx-179" value="" style="edgeStyle=orthogonalEdgeStyle;rounded=0;orthogonalLoop=1;jettySize=auto;html=1;entryX=0;entryY=0.5;entryDx=0;entryDy=0;" parent="WIyWlLk6GJQsqaUBKTNV-1" source="ShsvSv2e8H0igmz0pUxx-180" target="ShsvSv2e8H0igmz0pUxx-187" edge="1">
          <mxGeometry relative="1" as="geometry" />
        </mxCell>
        <mxCell id="ShsvSv2e8H0igmz0pUxx-180" value="Select User Data" style="whiteSpace=wrap;html=1;rounded=1;strokeWidth=2;fontSize=14;" parent="WIyWlLk6GJQsqaUBKTNV-1" vertex="1">
          <mxGeometry x="1021.0999999999999" y="1622.3600000000004" width="88.04" height="60" as="geometry" />
        </mxCell>
        <mxCell id="ShsvSv2e8H0igmz0pUxx-181" value="" style="edgeStyle=orthogonalEdgeStyle;rounded=0;orthogonalLoop=1;jettySize=auto;html=1;entryX=0;entryY=0.5;entryDx=0;entryDy=0;" parent="WIyWlLk6GJQsqaUBKTNV-1" source="ShsvSv2e8H0igmz0pUxx-185" target="ShsvSv2e8H0igmz0pUxx-204" edge="1">
          <mxGeometry relative="1" as="geometry" />
        </mxCell>
        <mxCell id="ShsvSv2e8H0igmz0pUxx-182" value="Yes" style="edgeLabel;html=1;align=center;verticalAlign=middle;resizable=0;points=[];" parent="ShsvSv2e8H0igmz0pUxx-181" vertex="1" connectable="0">
          <mxGeometry x="0.0193" y="3" relative="1" as="geometry">
            <mxPoint y="1" as="offset" />
          </mxGeometry>
        </mxCell>
        <mxCell id="ShsvSv2e8H0igmz0pUxx-183" value="" style="edgeStyle=orthogonalEdgeStyle;rounded=0;orthogonalLoop=1;jettySize=auto;html=1;entryX=0.5;entryY=0;entryDx=0;entryDy=0;" parent="WIyWlLk6GJQsqaUBKTNV-1" source="ShsvSv2e8H0igmz0pUxx-185" target="ShsvSv2e8H0igmz0pUxx-200" edge="1">
          <mxGeometry relative="1" as="geometry">
            <mxPoint x="1282.2699999999995" y="1772.3600000000004" as="targetPoint" />
          </mxGeometry>
        </mxCell>
        <mxCell id="ShsvSv2e8H0igmz0pUxx-184" value="No" style="edgeLabel;html=1;align=center;verticalAlign=middle;resizable=0;points=[];" parent="ShsvSv2e8H0igmz0pUxx-183" vertex="1" connectable="0">
          <mxGeometry x="-0.1325" y="2" relative="1" as="geometry">
            <mxPoint x="1" y="1" as="offset" />
          </mxGeometry>
        </mxCell>
        <mxCell id="ShsvSv2e8H0igmz0pUxx-185" value="&lt;font style=&quot;font-size: 14px;&quot;&gt;are you&lt;/font&gt;&lt;div&gt;&lt;font style=&quot;font-size: 14px;&quot;&gt;sure?&lt;/font&gt;&lt;/div&gt;" style="rhombus;whiteSpace=wrap;html=1;rounded=1;strokeWidth=2;" parent="WIyWlLk6GJQsqaUBKTNV-1" vertex="1">
          <mxGeometry x="1232.2799999999997" y="1614.6100000000001" width="109.5" height="80" as="geometry" />
        </mxCell>
        <mxCell id="ShsvSv2e8H0igmz0pUxx-186" value="" style="edgeStyle=orthogonalEdgeStyle;rounded=0;orthogonalLoop=1;jettySize=auto;html=1;" parent="WIyWlLk6GJQsqaUBKTNV-1" source="ShsvSv2e8H0igmz0pUxx-187" target="ShsvSv2e8H0igmz0pUxx-185" edge="1">
          <mxGeometry relative="1" as="geometry">
            <Array as="points">
              <mxPoint x="1231.06" y="1652.3600000000004" />
              <mxPoint x="1231.06" y="1652.3600000000004" />
            </Array>
          </mxGeometry>
        </mxCell>
        <mxCell id="ShsvSv2e8H0igmz0pUxx-187" value="&lt;span style=&quot;font-size: 14px;&quot;&gt;Click delete user button&lt;/span&gt;" style="whiteSpace=wrap;html=1;rounded=1;strokeWidth=2;" parent="WIyWlLk6GJQsqaUBKTNV-1" vertex="1">
          <mxGeometry x="1135.3999999999999" y="1622.3600000000004" width="78.22" height="60" as="geometry" />
        </mxCell>
        <mxCell id="ShsvSv2e8H0igmz0pUxx-188" value="7" style="ellipse;whiteSpace=wrap;html=1;rounded=1;strokeWidth=2;fontSize=14;" parent="WIyWlLk6GJQsqaUBKTNV-1" vertex="1">
          <mxGeometry x="1558" y="1422.1100000000001" width="55.46" height="52.5" as="geometry" />
        </mxCell>
        <mxCell id="ShsvSv2e8H0igmz0pUxx-189" value="" style="edgeStyle=orthogonalEdgeStyle;rounded=0;orthogonalLoop=1;jettySize=auto;html=1;" parent="WIyWlLk6GJQsqaUBKTNV-1" source="ShsvSv2e8H0igmz0pUxx-191" target="ShsvSv2e8H0igmz0pUxx-193" edge="1">
          <mxGeometry relative="1" as="geometry" />
        </mxCell>
        <mxCell id="ShsvSv2e8H0igmz0pUxx-190" value="" style="edgeStyle=orthogonalEdgeStyle;rounded=0;orthogonalLoop=1;jettySize=auto;html=1;exitX=0.48;exitY=1.001;exitDx=0;exitDy=0;exitPerimeter=0;entryX=0.48;entryY=-0.009;entryDx=0;entryDy=0;entryPerimeter=0;" parent="WIyWlLk6GJQsqaUBKTNV-1" source="ShsvSv2e8H0igmz0pUxx-191" target="ShsvSv2e8H0igmz0pUxx-178" edge="1">
          <mxGeometry relative="1" as="geometry" />
        </mxCell>
        <mxCell id="ShsvSv2e8H0igmz0pUxx-191" value="&lt;font style=&quot;font-size: 14px;&quot;&gt;Edit User Data&lt;/font&gt;" style="whiteSpace=wrap;html=1;rounded=1;strokeWidth=2;" parent="WIyWlLk6GJQsqaUBKTNV-1" vertex="1">
          <mxGeometry x="843.9999999999999" y="1522.6100000000001" width="150" height="60" as="geometry" />
        </mxCell>
        <mxCell id="ShsvSv2e8H0igmz0pUxx-192" value="" style="edgeStyle=orthogonalEdgeStyle;rounded=0;orthogonalLoop=1;jettySize=auto;html=1;" parent="WIyWlLk6GJQsqaUBKTNV-1" source="ShsvSv2e8H0igmz0pUxx-193" target="ShsvSv2e8H0igmz0pUxx-195" edge="1">
          <mxGeometry relative="1" as="geometry">
            <Array as="points">
              <mxPoint x="1227.75" y="1552.3600000000001" />
              <mxPoint x="1227.75" y="1552.3600000000001" />
            </Array>
          </mxGeometry>
        </mxCell>
        <mxCell id="ShsvSv2e8H0igmz0pUxx-193" value="input full name, contact&amp;nbsp;&lt;div&gt;number, email, type, status&amp;nbsp;&lt;/div&gt;&lt;div&gt;and image&lt;/div&gt;" style="shape=parallelogram;perimeter=parallelogramPerimeter;whiteSpace=wrap;html=1;fixedSize=1;rounded=1;strokeWidth=2;" parent="WIyWlLk6GJQsqaUBKTNV-1" vertex="1">
          <mxGeometry x="1019.75" y="1510.6100000000001" width="187.02" height="84" as="geometry" />
        </mxCell>
        <mxCell id="ShsvSv2e8H0igmz0pUxx-194" value="" style="edgeStyle=orthogonalEdgeStyle;rounded=0;orthogonalLoop=1;jettySize=auto;html=1;entryX=0;entryY=0.5;entryDx=0;entryDy=0;" parent="WIyWlLk6GJQsqaUBKTNV-1" source="ShsvSv2e8H0igmz0pUxx-195" target="ShsvSv2e8H0igmz0pUxx-207" edge="1">
          <mxGeometry relative="1" as="geometry" />
        </mxCell>
        <mxCell id="ShsvSv2e8H0igmz0pUxx-195" value="&lt;span style=&quot;font-size: 14px;&quot;&gt;Click edit user button&lt;/span&gt;" style="whiteSpace=wrap;html=1;rounded=1;strokeWidth=2;" parent="WIyWlLk6GJQsqaUBKTNV-1" vertex="1">
          <mxGeometry x="1232.4499999999998" y="1522.3600000000001" width="82.31" height="60" as="geometry" />
        </mxCell>
        <mxCell id="ShsvSv2e8H0igmz0pUxx-196" value="" style="edgeStyle=orthogonalEdgeStyle;rounded=0;orthogonalLoop=1;jettySize=auto;html=1;" parent="WIyWlLk6GJQsqaUBKTNV-1" target="ShsvSv2e8H0igmz0pUxx-198" edge="1">
          <mxGeometry relative="1" as="geometry">
            <mxPoint x="1526.5199990355945" y="1552.6030769230772" as="sourcePoint" />
          </mxGeometry>
        </mxCell>
        <mxCell id="ShsvSv2e8H0igmz0pUxx-198" value="7" style="ellipse;whiteSpace=wrap;html=1;rounded=1;strokeWidth=2;fontSize=14;" parent="WIyWlLk6GJQsqaUBKTNV-1" vertex="1">
          <mxGeometry x="1558" y="1526.3600000000001" width="55.46" height="52.5" as="geometry" />
        </mxCell>
        <mxCell id="ShsvSv2e8H0igmz0pUxx-200" value="7" style="ellipse;whiteSpace=wrap;html=1;rounded=1;strokeWidth=2;fontSize=14;" parent="WIyWlLk6GJQsqaUBKTNV-1" vertex="1">
          <mxGeometry x="1259.2999999999997" y="1723.3300000000002" width="55.46" height="52.5" as="geometry" />
        </mxCell>
        <mxCell id="t4tHIIzPQDvXIn7TSngj-6" value="" style="edgeStyle=orthogonalEdgeStyle;rounded=0;orthogonalLoop=1;jettySize=auto;html=1;" parent="WIyWlLk6GJQsqaUBKTNV-1" target="t4tHIIzPQDvXIn7TSngj-5" edge="1">
          <mxGeometry relative="1" as="geometry">
            <mxPoint x="1542.3599159894588" y="1652.2953846153848" as="sourcePoint" />
          </mxGeometry>
        </mxCell>
        <mxCell id="ShsvSv2e8H0igmz0pUxx-203" style="edgeStyle=orthogonalEdgeStyle;rounded=0;orthogonalLoop=1;jettySize=auto;html=1;entryX=0.03;entryY=0.595;entryDx=0;entryDy=0;entryPerimeter=0;" parent="WIyWlLk6GJQsqaUBKTNV-1" source="ShsvSv2e8H0igmz0pUxx-204" edge="1">
          <mxGeometry relative="1" as="geometry">
            <mxPoint x="1488.5638000000004" y="1657.3475" as="targetPoint" />
            <Array as="points">
              <mxPoint x="1459.06" y="1657.3600000000004" />
              <mxPoint x="1459.06" y="1657.3600000000004" />
            </Array>
          </mxGeometry>
        </mxCell>
        <mxCell id="ShsvSv2e8H0igmz0pUxx-204" value="&lt;div&gt;User Deleted Successfully&lt;/div&gt;" style="shape=parallelogram;perimeter=parallelogramPerimeter;whiteSpace=wrap;html=1;fixedSize=1;strokeWidth=2;" parent="WIyWlLk6GJQsqaUBKTNV-1" vertex="1">
          <mxGeometry x="1363.06" y="1630.6100000000004" width="116.69" height="48" as="geometry" />
        </mxCell>
        <mxCell id="ShsvSv2e8H0igmz0pUxx-205" style="edgeStyle=orthogonalEdgeStyle;rounded=0;orthogonalLoop=1;jettySize=auto;html=1;entryX=0;entryY=0.5;entryDx=0;entryDy=0;" parent="WIyWlLk6GJQsqaUBKTNV-1" source="ShsvSv2e8H0igmz0pUxx-206" edge="1">
          <mxGeometry relative="1" as="geometry">
            <mxPoint x="1471.060000000004" y="1448.3600000000004" as="targetPoint" />
            <Array as="points">
              <mxPoint x="1471.06" y="1448.3600000000001" />
              <mxPoint x="1471.06" y="1448.3600000000001" />
            </Array>
          </mxGeometry>
        </mxCell>
        <mxCell id="ShsvSv2e8H0igmz0pUxx-206" value="&lt;div&gt;User Added Successfully&lt;/div&gt;" style="shape=parallelogram;perimeter=parallelogramPerimeter;whiteSpace=wrap;html=1;fixedSize=1;strokeWidth=2;" parent="WIyWlLk6GJQsqaUBKTNV-1" vertex="1">
          <mxGeometry x="1341.7799999999997" y="1424.3600000000001" width="101.9" height="48" as="geometry" />
        </mxCell>
        <mxCell id="ShsvSv2e8H0igmz0pUxx-207" value="User&lt;div&gt;Edited Successfully&lt;/div&gt;" style="shape=parallelogram;perimeter=parallelogramPerimeter;whiteSpace=wrap;html=1;fixedSize=1;strokeWidth=2;" parent="WIyWlLk6GJQsqaUBKTNV-1" vertex="1">
          <mxGeometry x="1343.5700000000002" y="1528.3600000000001" width="102.24" height="48" as="geometry" />
        </mxCell>
        <mxCell id="ShsvSv2e8H0igmz0pUxx-208" style="edgeStyle=orthogonalEdgeStyle;rounded=0;orthogonalLoop=1;jettySize=auto;html=1;entryX=0;entryY=0.5;entryDx=0;entryDy=0;exitX=1;exitY=0.5;exitDx=0;exitDy=0;" parent="WIyWlLk6GJQsqaUBKTNV-1" source="ShsvSv2e8H0igmz0pUxx-207" edge="1">
          <mxGeometry relative="1" as="geometry">
            <Array as="points" />
            <mxPoint x="1471.060000000004" y="1552.6100000000004" as="targetPoint" />
          </mxGeometry>
        </mxCell>
        <mxCell id="ShsvSv2e8H0igmz0pUxx-216" value="" style="edgeStyle=orthogonalEdgeStyle;rounded=0;orthogonalLoop=1;jettySize=auto;html=1;" parent="WIyWlLk6GJQsqaUBKTNV-1" edge="1">
          <mxGeometry relative="1" as="geometry">
            <mxPoint x="919.7299999999996" y="1297.68" as="sourcePoint" />
            <mxPoint x="919.833333333333" y="1320.8600000000004" as="targetPoint" />
          </mxGeometry>
        </mxCell>
        <mxCell id="ShsvSv2e8H0igmz0pUxx-223" value="" style="edgeStyle=orthogonalEdgeStyle;rounded=0;orthogonalLoop=1;jettySize=auto;html=1;" parent="WIyWlLk6GJQsqaUBKTNV-1" target="ShsvSv2e8H0igmz0pUxx-227" edge="1">
          <mxGeometry relative="1" as="geometry">
            <mxPoint x="1568.058181818181" y="438.30018679950217" as="sourcePoint" />
          </mxGeometry>
        </mxCell>
        <mxCell id="t4tHIIzPQDvXIn7TSngj-9" value="No" style="edgeLabel;html=1;align=center;verticalAlign=middle;resizable=0;points=[];" parent="ShsvSv2e8H0igmz0pUxx-223" vertex="1" connectable="0">
          <mxGeometry x="0.2298" y="3" relative="1" as="geometry">
            <mxPoint as="offset" />
          </mxGeometry>
        </mxCell>
        <mxCell id="t4tHIIzPQDvXIn7TSngj-7" value="" style="edgeStyle=orthogonalEdgeStyle;rounded=0;orthogonalLoop=1;jettySize=auto;html=1;" parent="WIyWlLk6GJQsqaUBKTNV-1" source="ShsvSv2e8H0igmz0pUxx-225" target="ShsvSv2e8H0igmz0pUxx-226" edge="1">
          <mxGeometry relative="1" as="geometry" />
        </mxCell>
        <mxCell id="t4tHIIzPQDvXIn7TSngj-8" value="Yes" style="edgeLabel;html=1;align=center;verticalAlign=middle;resizable=0;points=[];" parent="t4tHIIzPQDvXIn7TSngj-7" vertex="1" connectable="0">
          <mxGeometry x="-0.1003" y="-3" relative="1" as="geometry">
            <mxPoint x="-3" as="offset" />
          </mxGeometry>
        </mxCell>
        <mxCell id="ShsvSv2e8H0igmz0pUxx-225" value="&lt;font style=&quot;font-size: 14px;&quot;&gt;are you&lt;/font&gt;&lt;div&gt;&lt;font style=&quot;font-size: 14px;&quot;&gt;sure?&lt;/font&gt;&lt;/div&gt;" style="rhombus;whiteSpace=wrap;html=1;rounded=1;strokeWidth=2;" parent="WIyWlLk6GJQsqaUBKTNV-1" vertex="1">
          <mxGeometry x="1513.2399999999996" y="384.6300000000001" width="109.5" height="80" as="geometry" />
        </mxCell>
        <mxCell id="ShsvSv2e8H0igmz0pUxx-226" value="&lt;font style=&quot;font-size: 14px;&quot;&gt;1&lt;/font&gt;" style="ellipse;whiteSpace=wrap;html=1;rounded=1;strokeWidth=2;" parent="WIyWlLk6GJQsqaUBKTNV-1" vertex="1">
          <mxGeometry x="1432.7899999999997" y="397.8800000000001" width="49.6" height="53.5" as="geometry" />
        </mxCell>
        <mxCell id="ShsvSv2e8H0igmz0pUxx-227" value="2" style="ellipse;whiteSpace=wrap;html=1;rounded=1;strokeWidth=2;" parent="WIyWlLk6GJQsqaUBKTNV-1" vertex="1">
          <mxGeometry x="1537.8299999999995" y="498.3800000000001" width="60.32" height="48" as="geometry" />
        </mxCell>
        <mxCell id="ShsvSv2e8H0igmz0pUxx-236" value="" style="edgeStyle=orthogonalEdgeStyle;rounded=0;orthogonalLoop=1;jettySize=auto;html=1;" parent="WIyWlLk6GJQsqaUBKTNV-1" source="ShsvSv2e8H0igmz0pUxx-231" target="ShsvSv2e8H0igmz0pUxx-235" edge="1">
          <mxGeometry relative="1" as="geometry" />
        </mxCell>
        <mxCell id="ShsvSv2e8H0igmz0pUxx-231" value="Exit Button" style="shape=parallelogram;perimeter=parallelogramPerimeter;whiteSpace=wrap;html=1;fixedSize=1;strokeWidth=2;" parent="WIyWlLk6GJQsqaUBKTNV-1" vertex="1">
          <mxGeometry x="20" y="946" width="120" height="30" as="geometry" />
        </mxCell>
        <mxCell id="ShsvSv2e8H0igmz0pUxx-235" value="End" style="strokeWidth=2;html=1;shape=mxgraph.flowchart.start_1;whiteSpace=wrap;" parent="WIyWlLk6GJQsqaUBKTNV-1" vertex="1">
          <mxGeometry x="29.999999999999986" y="1008" width="100" height="40" as="geometry" />
        </mxCell>
        <mxCell id="t4tHIIzPQDvXIn7TSngj-14" value="" style="edgeStyle=orthogonalEdgeStyle;rounded=0;orthogonalLoop=1;jettySize=auto;html=1;" parent="WIyWlLk6GJQsqaUBKTNV-1" source="t4tHIIzPQDvXIn7TSngj-1" target="ShsvSv2e8H0igmz0pUxx-55" edge="1">
          <mxGeometry relative="1" as="geometry" />
        </mxCell>
        <mxCell id="X0sMikLkQmicngNCFKQL-103" value="" style="edgeStyle=orthogonalEdgeStyle;rounded=0;orthogonalLoop=1;jettySize=auto;html=1;entryX=0.5;entryY=1;entryDx=0;entryDy=0;" parent="WIyWlLk6GJQsqaUBKTNV-1" source="t4tHIIzPQDvXIn7TSngj-1" target="X0sMikLkQmicngNCFKQL-101" edge="1">
          <mxGeometry relative="1" as="geometry" />
        </mxCell>
        <mxCell id="t4tHIIzPQDvXIn7TSngj-1" value="Record" style="shape=parallelogram;perimeter=parallelogramPerimeter;whiteSpace=wrap;html=1;fixedSize=1;strokeWidth=2;" parent="WIyWlLk6GJQsqaUBKTNV-1" vertex="1">
          <mxGeometry x="1249.2000000000003" y="133.48000000000002" width="118.96" height="42" as="geometry" />
        </mxCell>
        <mxCell id="t4tHIIzPQDvXIn7TSngj-5" value="7" style="ellipse;whiteSpace=wrap;html=1;rounded=1;strokeWidth=2;fontSize=14;" parent="WIyWlLk6GJQsqaUBKTNV-1" vertex="1">
          <mxGeometry x="1571.79" y="1626.1100000000004" width="55.46" height="52.5" as="geometry" />
        </mxCell>
        <mxCell id="X0sMikLkQmicngNCFKQL-85" value="" style="edgeStyle=orthogonalEdgeStyle;rounded=0;orthogonalLoop=1;jettySize=auto;html=1;" parent="WIyWlLk6GJQsqaUBKTNV-1" source="t4tHIIzPQDvXIn7TSngj-13" target="X0sMikLkQmicngNCFKQL-84" edge="1">
          <mxGeometry relative="1" as="geometry" />
        </mxCell>
        <mxCell id="X0sMikLkQmicngNCFKQL-107" value="" style="edgeStyle=orthogonalEdgeStyle;rounded=0;orthogonalLoop=1;jettySize=auto;html=1;entryX=0.5;entryY=1;entryDx=0;entryDy=0;" parent="WIyWlLk6GJQsqaUBKTNV-1" source="t4tHIIzPQDvXIn7TSngj-13" target="X0sMikLkQmicngNCFKQL-105" edge="1">
          <mxGeometry relative="1" as="geometry" />
        </mxCell>
        <mxCell id="t4tHIIzPQDvXIn7TSngj-13" value="Account Settings" style="shape=parallelogram;perimeter=parallelogramPerimeter;whiteSpace=wrap;html=1;fixedSize=1;strokeWidth=2;" parent="WIyWlLk6GJQsqaUBKTNV-1" vertex="1">
          <mxGeometry x="1508.2900000000002" y="133.48000000000002" width="118.96" height="42" as="geometry" />
        </mxCell>
        <mxCell id="t4tHIIzPQDvXIn7TSngj-39" value="" style="edgeStyle=orthogonalEdgeStyle;rounded=0;orthogonalLoop=1;jettySize=auto;html=1;" parent="WIyWlLk6GJQsqaUBKTNV-1" source="t4tHIIzPQDvXIn7TSngj-25" target="Uc0-LxrvivF567ajh-_D-9" edge="1">
          <mxGeometry relative="1" as="geometry" />
        </mxCell>
        <mxCell id="t4tHIIzPQDvXIn7TSngj-25" value="store user fullname,&amp;nbsp;&lt;div&gt;&lt;div&gt;contactnumber, email, password, type&lt;/div&gt;&lt;div&gt;to users table&lt;/div&gt;&lt;/div&gt;" style="shape=parallelogram;perimeter=parallelogramPerimeter;whiteSpace=wrap;html=1;fixedSize=1;strokeWidth=2;" parent="WIyWlLk6GJQsqaUBKTNV-1" vertex="1">
          <mxGeometry x="651.06" y="169.44" width="161.32" height="81.31" as="geometry" />
        </mxCell>
        <mxCell id="t4tHIIzPQDvXIn7TSngj-48" value="" style="edgeStyle=orthogonalEdgeStyle;rounded=0;orthogonalLoop=1;jettySize=auto;html=1;entryX=0.061;entryY=0.563;entryDx=0;entryDy=0;entryPerimeter=0;" parent="WIyWlLk6GJQsqaUBKTNV-1" source="t4tHIIzPQDvXIn7TSngj-35" target="t4tHIIzPQDvXIn7TSngj-25" edge="1">
          <mxGeometry relative="1" as="geometry" />
        </mxCell>
        <mxCell id="t4tHIIzPQDvXIn7TSngj-35" value="&lt;font style=&quot;font-size: 14px;&quot;&gt;Click register&lt;/font&gt;&lt;span style=&quot;font-size: 14px; background-color: transparent; color: light-dark(rgb(0, 0, 0), rgb(255, 255, 255));&quot;&gt;&amp;nbsp;button&lt;/span&gt;" style="whiteSpace=wrap;html=1;rounded=1;strokeWidth=2;" parent="WIyWlLk6GJQsqaUBKTNV-1" vertex="1">
          <mxGeometry x="536.29" y="185" width="99.71" height="60" as="geometry" />
        </mxCell>
        <mxCell id="t4tHIIzPQDvXIn7TSngj-46" value="" style="edgeStyle=orthogonalEdgeStyle;rounded=0;orthogonalLoop=1;jettySize=auto;html=1;entryX=-0.004;entryY=0.556;entryDx=0;entryDy=0;entryPerimeter=0;" parent="WIyWlLk6GJQsqaUBKTNV-1" source="t4tHIIzPQDvXIn7TSngj-43" target="MECrzSI235uCt05ITjjR-39" edge="1">
          <mxGeometry relative="1" as="geometry">
            <Array as="points">
              <mxPoint x="398.2399999999998" y="1569.43" />
              <mxPoint x="398.2399999999998" y="1570.43" />
            </Array>
          </mxGeometry>
        </mxCell>
        <mxCell id="t4tHIIzPQDvXIn7TSngj-43" value="&lt;div&gt;&lt;span style=&quot;font-size: 14px;&quot;&gt;input violation name, description, severity,&lt;/span&gt;&lt;/div&gt;&lt;div&gt;&lt;span style=&quot;font-size: 14px;&quot;&gt;&amp;nbsp;status = Pending&lt;/span&gt;&lt;/div&gt;" style="shape=parallelogram;perimeter=parallelogramPerimeter;whiteSpace=wrap;html=1;fixedSize=1;rounded=1;strokeWidth=2;" parent="WIyWlLk6GJQsqaUBKTNV-1" vertex="1">
          <mxGeometry x="189.93000000000006" y="1519.68" width="202.53" height="96" as="geometry" />
        </mxCell>
        <mxCell id="t4tHIIzPQDvXIn7TSngj-49" value="" style="edgeStyle=orthogonalEdgeStyle;rounded=0;orthogonalLoop=1;jettySize=auto;html=1;" parent="WIyWlLk6GJQsqaUBKTNV-1" source="t4tHIIzPQDvXIn7TSngj-51" target="t4tHIIzPQDvXIn7TSngj-53" edge="1">
          <mxGeometry relative="1" as="geometry" />
        </mxCell>
        <mxCell id="Jah_FWy3oRd_HzsZrCZo-21" value="" style="edgeStyle=orthogonalEdgeStyle;rounded=0;orthogonalLoop=1;jettySize=auto;html=1;" edge="1" parent="WIyWlLk6GJQsqaUBKTNV-1" source="t4tHIIzPQDvXIn7TSngj-51" target="t4tHIIzPQDvXIn7TSngj-78">
          <mxGeometry relative="1" as="geometry" />
        </mxCell>
        <mxCell id="t4tHIIzPQDvXIn7TSngj-51" value="&lt;font style=&quot;font-size: 14px;&quot;&gt;Get Account Data&lt;/font&gt;" style="whiteSpace=wrap;html=1;rounded=1;strokeWidth=2;" parent="WIyWlLk6GJQsqaUBKTNV-1" vertex="1">
          <mxGeometry x="857.7899999999998" y="1857.54" width="150" height="58" as="geometry" />
        </mxCell>
        <mxCell id="t4tHIIzPQDvXIn7TSngj-53" value="user_table" style="strokeWidth=2;html=1;shape=mxgraph.flowchart.database;whiteSpace=wrap;" parent="WIyWlLk6GJQsqaUBKTNV-1" vertex="1">
          <mxGeometry x="1059.83" y="1862.04" width="102.96" height="49" as="geometry" />
        </mxCell>
        <mxCell id="t4tHIIzPQDvXIn7TSngj-76" value="" style="edgeStyle=orthogonalEdgeStyle;rounded=0;orthogonalLoop=1;jettySize=auto;html=1;" parent="WIyWlLk6GJQsqaUBKTNV-1" source="t4tHIIzPQDvXIn7TSngj-78" target="t4tHIIzPQDvXIn7TSngj-80" edge="1">
          <mxGeometry relative="1" as="geometry" />
        </mxCell>
        <mxCell id="t4tHIIzPQDvXIn7TSngj-78" value="&lt;font style=&quot;font-size: 14px;&quot;&gt;Edit Account Data&lt;/font&gt;" style="whiteSpace=wrap;html=1;rounded=1;strokeWidth=2;" parent="WIyWlLk6GJQsqaUBKTNV-1" vertex="1">
          <mxGeometry x="857.7899999999998" y="1966.9299999999998" width="150" height="60" as="geometry" />
        </mxCell>
        <mxCell id="Jah_FWy3oRd_HzsZrCZo-24" value="" style="edgeStyle=orthogonalEdgeStyle;rounded=0;orthogonalLoop=1;jettySize=auto;html=1;" edge="1" parent="WIyWlLk6GJQsqaUBKTNV-1" source="t4tHIIzPQDvXIn7TSngj-80" target="t4tHIIzPQDvXIn7TSngj-82">
          <mxGeometry relative="1" as="geometry" />
        </mxCell>
        <mxCell id="t4tHIIzPQDvXIn7TSngj-80" value="input Fullname, contact&amp;nbsp;&lt;div&gt;number, image and password&lt;/div&gt;" style="shape=parallelogram;perimeter=parallelogramPerimeter;whiteSpace=wrap;html=1;fixedSize=1;rounded=1;strokeWidth=2;" parent="WIyWlLk6GJQsqaUBKTNV-1" vertex="1">
          <mxGeometry x="1033.54" y="1954.9299999999998" width="187.02" height="84" as="geometry" />
        </mxCell>
        <mxCell id="Jah_FWy3oRd_HzsZrCZo-25" value="" style="edgeStyle=orthogonalEdgeStyle;rounded=0;orthogonalLoop=1;jettySize=auto;html=1;" edge="1" parent="WIyWlLk6GJQsqaUBKTNV-1" source="t4tHIIzPQDvXIn7TSngj-82" target="t4tHIIzPQDvXIn7TSngj-93">
          <mxGeometry relative="1" as="geometry" />
        </mxCell>
        <mxCell id="t4tHIIzPQDvXIn7TSngj-82" value="&lt;span style=&quot;font-size: 14px;&quot;&gt;Click save/changepass button&lt;/span&gt;" style="whiteSpace=wrap;html=1;rounded=1;strokeWidth=2;" parent="WIyWlLk6GJQsqaUBKTNV-1" vertex="1">
          <mxGeometry x="1237.17" y="1963.3399999999997" width="127.3" height="67.18" as="geometry" />
        </mxCell>
        <mxCell id="t4tHIIzPQDvXIn7TSngj-83" value="" style="edgeStyle=orthogonalEdgeStyle;rounded=0;orthogonalLoop=1;jettySize=auto;html=1;" parent="WIyWlLk6GJQsqaUBKTNV-1" target="t4tHIIzPQDvXIn7TSngj-85" edge="1">
          <mxGeometry relative="1" as="geometry">
            <mxPoint x="1540.3099899209765" y="1996.9076190476185" as="sourcePoint" />
          </mxGeometry>
        </mxCell>
        <mxCell id="t4tHIIzPQDvXIn7TSngj-85" value="8" style="ellipse;whiteSpace=wrap;html=1;rounded=1;strokeWidth=2;fontSize=14;" parent="WIyWlLk6GJQsqaUBKTNV-1" vertex="1">
          <mxGeometry x="1571.79" y="1970.6799999999998" width="55.46" height="52.5" as="geometry" />
        </mxCell>
        <mxCell id="t4tHIIzPQDvXIn7TSngj-93" value="Account&lt;div&gt;Edited Successfully&lt;/div&gt;" style="shape=parallelogram;perimeter=parallelogramPerimeter;whiteSpace=wrap;html=1;fixedSize=1;strokeWidth=2;" parent="WIyWlLk6GJQsqaUBKTNV-1" vertex="1">
          <mxGeometry x="1373.8600000000001" y="1972.9299999999998" width="102.24" height="48" as="geometry" />
        </mxCell>
        <mxCell id="t4tHIIzPQDvXIn7TSngj-94" style="edgeStyle=orthogonalEdgeStyle;rounded=0;orthogonalLoop=1;jettySize=auto;html=1;entryX=0;entryY=0.5;entryDx=0;entryDy=0;exitX=1;exitY=0.5;exitDx=0;exitDy=0;" parent="WIyWlLk6GJQsqaUBKTNV-1" source="t4tHIIzPQDvXIn7TSngj-93" edge="1">
          <mxGeometry relative="1" as="geometry">
            <Array as="points" />
            <mxPoint x="1484.849999999999" y="1996.9299999999998" as="targetPoint" />
          </mxGeometry>
        </mxCell>
        <mxCell id="t4tHIIzPQDvXIn7TSngj-95" value="" style="edgeStyle=orthogonalEdgeStyle;rounded=0;orthogonalLoop=1;jettySize=auto;html=1;" parent="WIyWlLk6GJQsqaUBKTNV-1" target="t4tHIIzPQDvXIn7TSngj-51" edge="1">
          <mxGeometry relative="1" as="geometry">
            <mxPoint x="932.7900000000003" y="1834.3599999999997" as="sourcePoint" />
          </mxGeometry>
        </mxCell>
        <mxCell id="t4tHIIzPQDvXIn7TSngj-102" value="" style="edgeStyle=orthogonalEdgeStyle;rounded=0;orthogonalLoop=1;jettySize=auto;html=1;" parent="WIyWlLk6GJQsqaUBKTNV-1" source="t4tHIIzPQDvXIn7TSngj-104" target="t4tHIIzPQDvXIn7TSngj-106" edge="1">
          <mxGeometry relative="1" as="geometry" />
        </mxCell>
        <mxCell id="t4tHIIzPQDvXIn7TSngj-104" value="&lt;font style=&quot;font-size: 14px;&quot;&gt;Get Logs Data&lt;/font&gt;" style="whiteSpace=wrap;html=1;rounded=1;strokeWidth=2;" parent="WIyWlLk6GJQsqaUBKTNV-1" vertex="1">
          <mxGeometry x="864.8499999999998" y="2192.6100000000006" width="150" height="58" as="geometry" />
        </mxCell>
        <mxCell id="t4tHIIzPQDvXIn7TSngj-106" value="logs_table" style="strokeWidth=2;html=1;shape=mxgraph.flowchart.database;whiteSpace=wrap;" parent="WIyWlLk6GJQsqaUBKTNV-1" vertex="1">
          <mxGeometry x="1066.89" y="2197.1100000000006" width="102.96" height="49" as="geometry" />
        </mxCell>
        <mxCell id="t4tHIIzPQDvXIn7TSngj-148" value="" style="edgeStyle=orthogonalEdgeStyle;rounded=0;orthogonalLoop=1;jettySize=auto;html=1;" parent="WIyWlLk6GJQsqaUBKTNV-1" target="t4tHIIzPQDvXIn7TSngj-104" edge="1">
          <mxGeometry relative="1" as="geometry">
            <mxPoint x="939.8499999999991" y="2169.4300000000003" as="sourcePoint" />
          </mxGeometry>
        </mxCell>
        <mxCell id="t4tHIIzPQDvXIn7TSngj-151" value="SUMBI, LAWRENCE GUIAN P.&lt;span style=&quot;white-space: pre;&quot;&gt;&#x9;&lt;/span&gt;&lt;span style=&quot;white-space: pre;&quot;&gt;&#x9;&lt;/span&gt;STUDENT VIOLATION SYSTEM&lt;span style=&quot;white-space: pre;&quot;&gt;&#x9;&lt;/span&gt;&lt;span style=&quot;white-space: pre;&quot;&gt;&#x9;&lt;/span&gt;BSIT2A" style="text;html=1;align=center;verticalAlign=middle;whiteSpace=wrap;rounded=0;" parent="WIyWlLk6GJQsqaUBKTNV-1" vertex="1">
          <mxGeometry x="296.22" y="60" width="471.78" height="30" as="geometry" />
        </mxCell>
        <mxCell id="X0sMikLkQmicngNCFKQL-2" value="&lt;font style=&quot;font-size: 14px;&quot;&gt;Get Total Violations Data&lt;/font&gt;" style="whiteSpace=wrap;html=1;rounded=1;strokeWidth=2;" parent="WIyWlLk6GJQsqaUBKTNV-1" vertex="1">
          <mxGeometry x="507.14" y="762" width="199.88" height="35.25" as="geometry" />
        </mxCell>
        <mxCell id="X0sMikLkQmicngNCFKQL-3" value="&lt;font style=&quot;font-size: 14px;&quot;&gt;Get Total Students Data&lt;/font&gt;" style="whiteSpace=wrap;html=1;rounded=1;strokeWidth=2;" parent="WIyWlLk6GJQsqaUBKTNV-1" vertex="1">
          <mxGeometry x="507.14" y="704.83" width="199.88" height="35.25" as="geometry" />
        </mxCell>
        <mxCell id="X0sMikLkQmicngNCFKQL-6" value="" style="edgeStyle=orthogonalEdgeStyle;rounded=0;orthogonalLoop=1;jettySize=auto;html=1;" parent="WIyWlLk6GJQsqaUBKTNV-1" source="X0sMikLkQmicngNCFKQL-8" target="X0sMikLkQmicngNCFKQL-10" edge="1">
          <mxGeometry relative="1" as="geometry" />
        </mxCell>
        <mxCell id="X0sMikLkQmicngNCFKQL-7" value="" style="edgeStyle=orthogonalEdgeStyle;rounded=0;orthogonalLoop=1;jettySize=auto;html=1;" parent="WIyWlLk6GJQsqaUBKTNV-1" source="X0sMikLkQmicngNCFKQL-8" target="X0sMikLkQmicngNCFKQL-14" edge="1">
          <mxGeometry relative="1" as="geometry" />
        </mxCell>
        <mxCell id="X0sMikLkQmicngNCFKQL-8" value="&lt;font style=&quot;font-size: 14px;&quot;&gt;Get Records Data&lt;/font&gt;" style="whiteSpace=wrap;html=1;rounded=1;strokeWidth=2;" parent="WIyWlLk6GJQsqaUBKTNV-1" vertex="1">
          <mxGeometry x="20" y="1942.93" width="150" height="58" as="geometry" />
        </mxCell>
        <mxCell id="X0sMikLkQmicngNCFKQL-10" value="rec_table" style="strokeWidth=2;html=1;shape=mxgraph.flowchart.database;whiteSpace=wrap;" parent="WIyWlLk6GJQsqaUBKTNV-1" vertex="1">
          <mxGeometry x="222.03999999999996" y="1947.43" width="102.96" height="49" as="geometry" />
        </mxCell>
        <mxCell id="X0sMikLkQmicngNCFKQL-12" value="" style="edgeStyle=orthogonalEdgeStyle;rounded=0;orthogonalLoop=1;jettySize=auto;html=1;" parent="WIyWlLk6GJQsqaUBKTNV-1" source="X0sMikLkQmicngNCFKQL-14" target="X0sMikLkQmicngNCFKQL-16" edge="1">
          <mxGeometry relative="1" as="geometry" />
        </mxCell>
        <mxCell id="X0sMikLkQmicngNCFKQL-13" value="" style="edgeStyle=orthogonalEdgeStyle;rounded=0;orthogonalLoop=1;jettySize=auto;html=1;" parent="WIyWlLk6GJQsqaUBKTNV-1" source="X0sMikLkQmicngNCFKQL-14" target="X0sMikLkQmicngNCFKQL-36" edge="1">
          <mxGeometry relative="1" as="geometry" />
        </mxCell>
        <mxCell id="X0sMikLkQmicngNCFKQL-14" value="&lt;font style=&quot;font-size: 14px;&quot;&gt;Add Record Data&lt;/font&gt;" style="whiteSpace=wrap;html=1;rounded=1;strokeWidth=2;" parent="WIyWlLk6GJQsqaUBKTNV-1" vertex="1">
          <mxGeometry x="20" y="2038.93" width="150" height="60" as="geometry" />
        </mxCell>
        <mxCell id="X0sMikLkQmicngNCFKQL-15" value="" style="edgeStyle=orthogonalEdgeStyle;rounded=0;orthogonalLoop=1;jettySize=auto;html=1;" parent="WIyWlLk6GJQsqaUBKTNV-1" source="X0sMikLkQmicngNCFKQL-16" target="X0sMikLkQmicngNCFKQL-18" edge="1">
          <mxGeometry relative="1" as="geometry" />
        </mxCell>
        <mxCell id="X0sMikLkQmicngNCFKQL-16" value="&lt;div&gt;&lt;div&gt;input sanction and comment,&lt;/div&gt;&lt;/div&gt;&lt;div&gt;status of violation = Recorded&lt;/div&gt;" style="shape=parallelogram;perimeter=parallelogramPerimeter;whiteSpace=wrap;html=1;fixedSize=1;rounded=1;strokeWidth=2;" parent="WIyWlLk6GJQsqaUBKTNV-1" vertex="1">
          <mxGeometry x="180.18000000000006" y="2020.93" width="202.53" height="96" as="geometry" />
        </mxCell>
        <mxCell id="X0sMikLkQmicngNCFKQL-17" value="" style="edgeStyle=orthogonalEdgeStyle;rounded=0;orthogonalLoop=1;jettySize=auto;html=1;" parent="WIyWlLk6GJQsqaUBKTNV-1" source="X0sMikLkQmicngNCFKQL-18" target="X0sMikLkQmicngNCFKQL-50" edge="1">
          <mxGeometry relative="1" as="geometry" />
        </mxCell>
        <mxCell id="X0sMikLkQmicngNCFKQL-18" value="&lt;span style=&quot;font-size: 14px;&quot;&gt;Click add violation status button&lt;/span&gt;" style="whiteSpace=wrap;html=1;rounded=1;strokeWidth=2;" parent="WIyWlLk6GJQsqaUBKTNV-1" vertex="1">
          <mxGeometry x="399.2399999999998" y="2038.01" width="118.54" height="60" as="geometry" />
        </mxCell>
        <mxCell id="X0sMikLkQmicngNCFKQL-19" value="" style="edgeStyle=orthogonalEdgeStyle;rounded=0;orthogonalLoop=1;jettySize=auto;html=1;" parent="WIyWlLk6GJQsqaUBKTNV-1" target="X0sMikLkQmicngNCFKQL-33" edge="1">
          <mxGeometry relative="1" as="geometry">
            <mxPoint x="718.4599925586008" y="2068.949230769231" as="sourcePoint" />
          </mxGeometry>
        </mxCell>
        <mxCell id="X0sMikLkQmicngNCFKQL-21" value="" style="edgeStyle=orthogonalEdgeStyle;rounded=0;orthogonalLoop=1;jettySize=auto;html=1;" parent="WIyWlLk6GJQsqaUBKTNV-1" target="X0sMikLkQmicngNCFKQL-24" edge="1">
          <mxGeometry relative="1" as="geometry">
            <mxPoint x="1830" y="757.826086956522" as="sourcePoint" />
          </mxGeometry>
        </mxCell>
        <mxCell id="X0sMikLkQmicngNCFKQL-23" value="" style="edgeStyle=orthogonalEdgeStyle;rounded=0;orthogonalLoop=1;jettySize=auto;html=1;" parent="WIyWlLk6GJQsqaUBKTNV-1" target="X0sMikLkQmicngNCFKQL-48" edge="1">
          <mxGeometry relative="1" as="geometry">
            <mxPoint x="1955.3199999999997" y="756.7826086956522" as="sourcePoint" />
          </mxGeometry>
        </mxCell>
        <mxCell id="X0sMikLkQmicngNCFKQL-25" value="" style="edgeStyle=orthogonalEdgeStyle;rounded=0;orthogonalLoop=1;jettySize=auto;html=1;" parent="WIyWlLk6GJQsqaUBKTNV-1" target="X0sMikLkQmicngNCFKQL-44" edge="1">
          <mxGeometry relative="1" as="geometry">
            <mxPoint x="2226.4799999999996" y="757.75" as="targetPoint" />
            <mxPoint x="2174.455855978261" y="757.826086956522" as="sourcePoint" />
          </mxGeometry>
        </mxCell>
        <mxCell id="X0sMikLkQmicngNCFKQL-55" value="Yes" style="edgeLabel;html=1;align=center;verticalAlign=middle;resizable=0;points=[];" parent="X0sMikLkQmicngNCFKQL-25" vertex="1" connectable="0">
          <mxGeometry x="-0.4418" relative="1" as="geometry">
            <mxPoint x="2" as="offset" />
          </mxGeometry>
        </mxCell>
        <mxCell id="X0sMikLkQmicngNCFKQL-27" value="" style="edgeStyle=orthogonalEdgeStyle;rounded=0;orthogonalLoop=1;jettySize=auto;html=1;entryX=0.5;entryY=0;entryDx=0;entryDy=0;" parent="WIyWlLk6GJQsqaUBKTNV-1" target="X0sMikLkQmicngNCFKQL-43" edge="1">
          <mxGeometry relative="1" as="geometry">
            <mxPoint x="2119.8099999999995" y="877.75" as="targetPoint" />
            <mxPoint x="2119.8695652173915" y="797.706482032956" as="sourcePoint" />
          </mxGeometry>
        </mxCell>
        <mxCell id="X0sMikLkQmicngNCFKQL-28" value="No" style="edgeLabel;html=1;align=center;verticalAlign=middle;resizable=0;points=[];" parent="X0sMikLkQmicngNCFKQL-27" vertex="1" connectable="0">
          <mxGeometry x="-0.1325" y="2" relative="1" as="geometry">
            <mxPoint x="1" y="1" as="offset" />
          </mxGeometry>
        </mxCell>
        <mxCell id="X0sMikLkQmicngNCFKQL-30" value="" style="edgeStyle=orthogonalEdgeStyle;rounded=0;orthogonalLoop=1;jettySize=auto;html=1;exitX=1;exitY=0.5;exitDx=0;exitDy=0;entryX=0;entryY=0.5;entryDx=0;entryDy=0;" parent="WIyWlLk6GJQsqaUBKTNV-1" target="X0sMikLkQmicngNCFKQL-46" edge="1">
          <mxGeometry relative="1" as="geometry">
            <mxPoint x="2294" y="757.75" as="sourcePoint" />
          </mxGeometry>
        </mxCell>
        <mxCell id="X0sMikLkQmicngNCFKQL-31" value="" style="edgeStyle=orthogonalEdgeStyle;rounded=0;orthogonalLoop=1;jettySize=auto;html=1;" parent="WIyWlLk6GJQsqaUBKTNV-1" source="X0sMikLkQmicngNCFKQL-32" edge="1">
          <mxGeometry relative="1" as="geometry">
            <mxPoint x="91.01999999999998" y="1942.93" as="targetPoint" />
          </mxGeometry>
        </mxCell>
        <mxCell id="X0sMikLkQmicngNCFKQL-32" value="" style="verticalLabelPosition=bottom;verticalAlign=top;html=1;shape=offPageConnector;rounded=0;size=0.5;" parent="WIyWlLk6GJQsqaUBKTNV-1" vertex="1">
          <mxGeometry x="61.01999999999998" y="1846.93" width="60" height="60" as="geometry" />
        </mxCell>
        <mxCell id="X0sMikLkQmicngNCFKQL-33" value="6" style="ellipse;whiteSpace=wrap;html=1;rounded=1;strokeWidth=2;fontSize=14;" parent="WIyWlLk6GJQsqaUBKTNV-1" vertex="1">
          <mxGeometry x="744.1800000000003" y="2041.76" width="55.46" height="52.5" as="geometry" />
        </mxCell>
        <mxCell id="X0sMikLkQmicngNCFKQL-35" value="" style="edgeStyle=orthogonalEdgeStyle;rounded=0;orthogonalLoop=1;jettySize=auto;html=1;entryX=0;entryY=0.5;entryDx=0;entryDy=0;" parent="WIyWlLk6GJQsqaUBKTNV-1" source="X0sMikLkQmicngNCFKQL-36" target="X0sMikLkQmicngNCFKQL-54" edge="1">
          <mxGeometry relative="1" as="geometry" />
        </mxCell>
        <mxCell id="X0sMikLkQmicngNCFKQL-36" value="&lt;font style=&quot;font-size: 14px;&quot;&gt;Edit Record Data&lt;/font&gt;" style="whiteSpace=wrap;html=1;rounded=1;strokeWidth=2;" parent="WIyWlLk6GJQsqaUBKTNV-1" vertex="1">
          <mxGeometry x="20" y="2143.1800000000003" width="150" height="60" as="geometry" />
        </mxCell>
        <mxCell id="X0sMikLkQmicngNCFKQL-37" value="" style="edgeStyle=orthogonalEdgeStyle;rounded=0;orthogonalLoop=1;jettySize=auto;html=1;" parent="WIyWlLk6GJQsqaUBKTNV-1" source="X0sMikLkQmicngNCFKQL-38" target="X0sMikLkQmicngNCFKQL-52" edge="1">
          <mxGeometry relative="1" as="geometry" />
        </mxCell>
        <mxCell id="X0sMikLkQmicngNCFKQL-38" value="&lt;span style=&quot;font-size: 14px;&quot;&gt;Click edit violation status button&lt;/span&gt;" style="whiteSpace=wrap;html=1;rounded=1;strokeWidth=2;" parent="WIyWlLk6GJQsqaUBKTNV-1" vertex="1">
          <mxGeometry x="399.2399999999998" y="2141.9300000000003" width="118.54" height="60" as="geometry" />
        </mxCell>
        <mxCell id="X0sMikLkQmicngNCFKQL-39" value="" style="edgeStyle=orthogonalEdgeStyle;rounded=0;orthogonalLoop=1;jettySize=auto;html=1;" parent="WIyWlLk6GJQsqaUBKTNV-1" target="X0sMikLkQmicngNCFKQL-41" edge="1">
          <mxGeometry relative="1" as="geometry">
            <mxPoint x="718.4599925586008" y="2172.949230769231" as="sourcePoint" />
          </mxGeometry>
        </mxCell>
        <mxCell id="X0sMikLkQmicngNCFKQL-41" value="6" style="ellipse;whiteSpace=wrap;html=1;rounded=1;strokeWidth=2;fontSize=14;" parent="WIyWlLk6GJQsqaUBKTNV-1" vertex="1">
          <mxGeometry x="744.1800000000003" y="2146.9300000000003" width="55.46" height="52.5" as="geometry" />
        </mxCell>
        <mxCell id="X0sMikLkQmicngNCFKQL-45" style="edgeStyle=orthogonalEdgeStyle;rounded=0;orthogonalLoop=1;jettySize=auto;html=1;entryX=0;entryY=0.5;entryDx=0;entryDy=0;" parent="WIyWlLk6GJQsqaUBKTNV-1" target="X0sMikLkQmicngNCFKQL-42" edge="1">
          <mxGeometry relative="1" as="geometry">
            <mxPoint x="2378.4599976226905" y="757.7391304347825" as="sourcePoint" />
          </mxGeometry>
        </mxCell>
        <mxCell id="X0sMikLkQmicngNCFKQL-47" value="" style="edgeStyle=orthogonalEdgeStyle;rounded=0;orthogonalLoop=1;jettySize=auto;html=1;entryX=0.03;entryY=0.489;entryDx=0;entryDy=0;entryPerimeter=0;" parent="WIyWlLk6GJQsqaUBKTNV-1" target="X0sMikLkQmicngNCFKQL-29" edge="1">
          <mxGeometry relative="1" as="geometry">
            <Array as="points">
              <mxPoint x="2064" y="757" />
            </Array>
            <mxPoint x="2056.0399999999995" y="756.8695652173913" as="sourcePoint" />
          </mxGeometry>
        </mxCell>
        <mxCell id="X0sMikLkQmicngNCFKQL-49" value="" style="edgeStyle=orthogonalEdgeStyle;rounded=0;orthogonalLoop=1;jettySize=auto;html=1;entryX=0;entryY=0.5;entryDx=0;entryDy=0;" parent="WIyWlLk6GJQsqaUBKTNV-1" source="X0sMikLkQmicngNCFKQL-50" edge="1">
          <mxGeometry relative="1" as="geometry">
            <mxPoint x="663.0000000000277" y="2068.9300000000003" as="targetPoint" />
            <Array as="points">
              <mxPoint x="658.2399999999998" y="2067.9300000000003" />
            </Array>
          </mxGeometry>
        </mxCell>
        <mxCell id="X0sMikLkQmicngNCFKQL-50" value="Record&lt;div&gt;Added Successfully&lt;/div&gt;" style="shape=parallelogram;perimeter=parallelogramPerimeter;whiteSpace=wrap;html=1;fixedSize=1;strokeWidth=2;" parent="WIyWlLk6GJQsqaUBKTNV-1" vertex="1">
          <mxGeometry x="524" y="2044.01" width="132" height="48" as="geometry" />
        </mxCell>
        <mxCell id="X0sMikLkQmicngNCFKQL-51" value="" style="edgeStyle=orthogonalEdgeStyle;rounded=0;orthogonalLoop=1;jettySize=auto;html=1;entryX=-0.011;entryY=0.481;entryDx=0;entryDy=0;entryPerimeter=0;" parent="WIyWlLk6GJQsqaUBKTNV-1" source="X0sMikLkQmicngNCFKQL-52" edge="1">
          <mxGeometry relative="1" as="geometry">
            <mxPoint x="662.38994" y="2171.9325" as="targetPoint" />
            <Array as="points">
              <mxPoint x="646.2399999999998" y="2171.9300000000003" />
              <mxPoint x="646.2399999999998" y="2171.9300000000003" />
            </Array>
          </mxGeometry>
        </mxCell>
        <mxCell id="X0sMikLkQmicngNCFKQL-52" value="Record&lt;br&gt;&lt;div&gt;&lt;div&gt;Edited Successfully&lt;/div&gt;&lt;/div&gt;" style="shape=parallelogram;perimeter=parallelogramPerimeter;whiteSpace=wrap;html=1;fixedSize=1;strokeWidth=2;" parent="WIyWlLk6GJQsqaUBKTNV-1" vertex="1">
          <mxGeometry x="539.0500000000002" y="2143.1800000000003" width="104.95" height="57.75" as="geometry" />
        </mxCell>
        <mxCell id="X0sMikLkQmicngNCFKQL-53" value="" style="edgeStyle=orthogonalEdgeStyle;rounded=0;orthogonalLoop=1;jettySize=auto;html=1;entryX=-0.004;entryY=0.556;entryDx=0;entryDy=0;entryPerimeter=0;" parent="WIyWlLk6GJQsqaUBKTNV-1" source="X0sMikLkQmicngNCFKQL-54" target="X0sMikLkQmicngNCFKQL-38" edge="1">
          <mxGeometry relative="1" as="geometry">
            <Array as="points">
              <mxPoint x="394.2399999999998" y="2174.9300000000003" />
              <mxPoint x="394.2399999999998" y="2175.9300000000003" />
            </Array>
          </mxGeometry>
        </mxCell>
        <mxCell id="X0sMikLkQmicngNCFKQL-54" value="input sanction and comment" style="shape=parallelogram;perimeter=parallelogramPerimeter;whiteSpace=wrap;html=1;fixedSize=1;rounded=1;strokeWidth=2;" parent="WIyWlLk6GJQsqaUBKTNV-1" vertex="1">
          <mxGeometry x="185.93000000000006" y="2125.1800000000003" width="202.53" height="96" as="geometry" />
        </mxCell>
        <mxCell id="X0sMikLkQmicngNCFKQL-60" value="" style="edgeStyle=orthogonalEdgeStyle;rounded=0;orthogonalLoop=1;jettySize=auto;html=1;" parent="WIyWlLk6GJQsqaUBKTNV-1" source="X0sMikLkQmicngNCFKQL-58" target="X0sMikLkQmicngNCFKQL-59" edge="1">
          <mxGeometry relative="1" as="geometry" />
        </mxCell>
        <mxCell id="X0sMikLkQmicngNCFKQL-64" value="" style="edgeStyle=orthogonalEdgeStyle;rounded=0;orthogonalLoop=1;jettySize=auto;html=1;" parent="WIyWlLk6GJQsqaUBKTNV-1" source="X0sMikLkQmicngNCFKQL-58" target="ShsvSv2e8H0igmz0pUxx-8" edge="1">
          <mxGeometry relative="1" as="geometry" />
        </mxCell>
        <mxCell id="X0sMikLkQmicngNCFKQL-58" value="Account Settings" style="shape=parallelogram;perimeter=parallelogramPerimeter;whiteSpace=wrap;html=1;fixedSize=1;strokeWidth=2;" parent="WIyWlLk6GJQsqaUBKTNV-1" vertex="1">
          <mxGeometry x="187.77" y="930" width="145.54" height="42" as="geometry" />
        </mxCell>
        <mxCell id="X0sMikLkQmicngNCFKQL-59" value="" style="verticalLabelPosition=bottom;verticalAlign=top;html=1;shape=offPageConnector;rounded=0;size=0.5;" parent="WIyWlLk6GJQsqaUBKTNV-1" vertex="1">
          <mxGeometry x="383.99999999999994" y="921" width="60" height="60" as="geometry" />
        </mxCell>
        <mxCell id="X0sMikLkQmicngNCFKQL-73" value="" style="edgeStyle=orthogonalEdgeStyle;rounded=0;orthogonalLoop=1;jettySize=auto;html=1;" parent="WIyWlLk6GJQsqaUBKTNV-1" source="X0sMikLkQmicngNCFKQL-72" target="ShsvSv2e8H0igmz0pUxx-50" edge="1">
          <mxGeometry relative="1" as="geometry" />
        </mxCell>
        <mxCell id="X0sMikLkQmicngNCFKQL-72" value="" style="verticalLabelPosition=bottom;verticalAlign=top;html=1;shape=offPageConnector;rounded=0;size=0.5;" parent="WIyWlLk6GJQsqaUBKTNV-1" vertex="1">
          <mxGeometry x="894.3299999999999" y="49.48000000000002" width="60" height="60" as="geometry" />
        </mxCell>
        <mxCell id="X0sMikLkQmicngNCFKQL-74" value="2" style="text;html=1;align=center;verticalAlign=middle;whiteSpace=wrap;rounded=0;" parent="WIyWlLk6GJQsqaUBKTNV-1" vertex="1">
          <mxGeometry x="894.3299999999999" y="53.23000000000002" width="60" height="39.68" as="geometry" />
        </mxCell>
        <mxCell id="X0sMikLkQmicngNCFKQL-76" value="&lt;font style=&quot;font-size: 14px;&quot;&gt;Get Total Students Data&lt;/font&gt;" style="whiteSpace=wrap;html=1;rounded=1;strokeWidth=2;" parent="WIyWlLk6GJQsqaUBKTNV-1" vertex="1">
          <mxGeometry x="857.9699999999999" y="305.23" width="132.72" height="41.68" as="geometry" />
        </mxCell>
        <mxCell id="X0sMikLkQmicngNCFKQL-77" value="&lt;font style=&quot;font-size: 14px;&quot;&gt;Get Total Violations Data&lt;/font&gt;" style="whiteSpace=wrap;html=1;rounded=1;strokeWidth=2;" parent="WIyWlLk6GJQsqaUBKTNV-1" vertex="1">
          <mxGeometry x="1008.04" y="305.23" width="132.72" height="41.68" as="geometry" />
        </mxCell>
        <mxCell id="X0sMikLkQmicngNCFKQL-78" value="&lt;font style=&quot;font-size: 14px;&quot;&gt;Get Total Pending Users Data&lt;/font&gt;" style="whiteSpace=wrap;html=1;rounded=1;strokeWidth=2;" parent="WIyWlLk6GJQsqaUBKTNV-1" vertex="1">
          <mxGeometry x="1155.09" y="305.23" width="132.72" height="41.68" as="geometry" />
        </mxCell>
        <mxCell id="X0sMikLkQmicngNCFKQL-82" value="" style="verticalLabelPosition=bottom;verticalAlign=top;html=1;shape=offPageConnector;rounded=0;size=0.5;" parent="WIyWlLk6GJQsqaUBKTNV-1" vertex="1">
          <mxGeometry x="1031.81" y="51.75" width="60" height="60" as="geometry" />
        </mxCell>
        <mxCell id="X0sMikLkQmicngNCFKQL-83" value="" style="verticalLabelPosition=bottom;verticalAlign=top;html=1;shape=offPageConnector;rounded=0;size=0.5;" parent="WIyWlLk6GJQsqaUBKTNV-1" vertex="1">
          <mxGeometry x="1159.72" y="49.48000000000002" width="60" height="60" as="geometry" />
        </mxCell>
        <mxCell id="X0sMikLkQmicngNCFKQL-86" value="" style="edgeStyle=orthogonalEdgeStyle;rounded=0;orthogonalLoop=1;jettySize=auto;html=1;" parent="WIyWlLk6GJQsqaUBKTNV-1" source="X0sMikLkQmicngNCFKQL-84" target="ShsvSv2e8H0igmz0pUxx-146" edge="1">
          <mxGeometry relative="1" as="geometry" />
        </mxCell>
        <mxCell id="X0sMikLkQmicngNCFKQL-110" value="" style="edgeStyle=orthogonalEdgeStyle;rounded=0;orthogonalLoop=1;jettySize=auto;html=1;entryX=0.5;entryY=0;entryDx=0;entryDy=0;" parent="WIyWlLk6GJQsqaUBKTNV-1" source="X0sMikLkQmicngNCFKQL-84" target="X0sMikLkQmicngNCFKQL-108" edge="1">
          <mxGeometry relative="1" as="geometry">
            <Array as="points">
              <mxPoint x="1496.05" y="240.23000000000002" />
              <mxPoint x="1443.05" y="240.23000000000002" />
            </Array>
          </mxGeometry>
        </mxCell>
        <mxCell id="X0sMikLkQmicngNCFKQL-84" value="Activity Logs" style="shape=parallelogram;perimeter=parallelogramPerimeter;whiteSpace=wrap;html=1;fixedSize=1;strokeWidth=2;" parent="WIyWlLk6GJQsqaUBKTNV-1" vertex="1">
          <mxGeometry x="1508.2900000000004" y="218.91000000000008" width="118.96" height="42" as="geometry" />
        </mxCell>
        <mxCell id="X0sMikLkQmicngNCFKQL-87" value="4" style="text;html=1;align=center;verticalAlign=middle;whiteSpace=wrap;rounded=0;" parent="WIyWlLk6GJQsqaUBKTNV-1" vertex="1">
          <mxGeometry x="379.99999999999994" y="800.3199999999999" width="60" height="39.68" as="geometry" />
        </mxCell>
        <mxCell id="X0sMikLkQmicngNCFKQL-88" value="4" style="text;html=1;align=center;verticalAlign=middle;whiteSpace=wrap;rounded=0;" parent="WIyWlLk6GJQsqaUBKTNV-1" vertex="1">
          <mxGeometry x="898.8099999999998" y="581.32" width="60" height="39.68" as="geometry" />
        </mxCell>
        <mxCell id="X0sMikLkQmicngNCFKQL-90" value="5" style="text;html=1;align=center;verticalAlign=middle;whiteSpace=wrap;rounded=0;" parent="WIyWlLk6GJQsqaUBKTNV-1" vertex="1">
          <mxGeometry x="438.7499999999999" y="865.0000000000001" width="60" height="39.68" as="geometry" />
        </mxCell>
        <mxCell id="X0sMikLkQmicngNCFKQL-91" value="8" style="text;html=1;align=center;verticalAlign=middle;whiteSpace=wrap;rounded=0;" parent="WIyWlLk6GJQsqaUBKTNV-1" vertex="1">
          <mxGeometry x="383.9999999999999" y="925.3200000000002" width="60" height="39.68" as="geometry" />
        </mxCell>
        <mxCell id="X0sMikLkQmicngNCFKQL-92" value="5" style="text;html=1;align=center;verticalAlign=middle;whiteSpace=wrap;rounded=0;" parent="WIyWlLk6GJQsqaUBKTNV-1" vertex="1">
          <mxGeometry x="65.01999999999998" y="1246.5900000000001" width="60" height="39.68" as="geometry" />
        </mxCell>
        <mxCell id="X0sMikLkQmicngNCFKQL-93" value="6" style="text;html=1;align=center;verticalAlign=middle;whiteSpace=wrap;rounded=0;" parent="WIyWlLk6GJQsqaUBKTNV-1" vertex="1">
          <mxGeometry x="61.01999999999998" y="1850.5000000000002" width="60" height="39.68" as="geometry" />
        </mxCell>
        <mxCell id="X0sMikLkQmicngNCFKQL-94" value="4" style="text;html=1;align=center;verticalAlign=middle;whiteSpace=wrap;rounded=0;" parent="WIyWlLk6GJQsqaUBKTNV-1" vertex="1">
          <mxGeometry x="1031.81" y="55.8900000000001" width="60" height="39.68" as="geometry" />
        </mxCell>
        <mxCell id="X0sMikLkQmicngNCFKQL-95" value="5" style="text;html=1;align=center;verticalAlign=middle;whiteSpace=wrap;rounded=0;" parent="WIyWlLk6GJQsqaUBKTNV-1" vertex="1">
          <mxGeometry x="1159.72" y="55.8900000000001" width="60" height="39.68" as="geometry" />
        </mxCell>
        <mxCell id="X0sMikLkQmicngNCFKQL-101" value="" style="verticalLabelPosition=bottom;verticalAlign=top;html=1;shape=offPageConnector;rounded=0;size=0.5;" parent="WIyWlLk6GJQsqaUBKTNV-1" vertex="1">
          <mxGeometry x="1278.6799999999998" y="49.48000000000002" width="60" height="60" as="geometry" />
        </mxCell>
        <mxCell id="X0sMikLkQmicngNCFKQL-102" value="6" style="text;html=1;align=center;verticalAlign=middle;whiteSpace=wrap;rounded=0;" parent="WIyWlLk6GJQsqaUBKTNV-1" vertex="1">
          <mxGeometry x="1278.6799999999998" y="55.8900000000001" width="60" height="39.68" as="geometry" />
        </mxCell>
        <mxCell id="X0sMikLkQmicngNCFKQL-105" value="" style="verticalLabelPosition=bottom;verticalAlign=top;html=1;shape=offPageConnector;rounded=0;size=0.5;" parent="WIyWlLk6GJQsqaUBKTNV-1" vertex="1">
          <mxGeometry x="1537.77" y="51.75" width="60" height="60" as="geometry" />
        </mxCell>
        <mxCell id="X0sMikLkQmicngNCFKQL-106" value="8" style="text;html=1;align=center;verticalAlign=middle;whiteSpace=wrap;rounded=0;" parent="WIyWlLk6GJQsqaUBKTNV-1" vertex="1">
          <mxGeometry x="1537.77" y="58.16000000000008" width="60" height="39.68" as="geometry" />
        </mxCell>
        <mxCell id="X0sMikLkQmicngNCFKQL-108" value="" style="verticalLabelPosition=bottom;verticalAlign=top;html=1;shape=offPageConnector;rounded=0;size=0.5;" parent="WIyWlLk6GJQsqaUBKTNV-1" vertex="1">
          <mxGeometry x="1436.46" y="260.9100000000001" width="60" height="60" as="geometry" />
        </mxCell>
        <mxCell id="X0sMikLkQmicngNCFKQL-109" value="9" style="text;html=1;align=center;verticalAlign=middle;whiteSpace=wrap;rounded=0;" parent="WIyWlLk6GJQsqaUBKTNV-1" vertex="1">
          <mxGeometry x="1436.46" y="267.32000000000016" width="60" height="39.68" as="geometry" />
        </mxCell>
        <mxCell id="Jah_FWy3oRd_HzsZrCZo-3" value="&lt;font style=&quot;font-size: 14px;&quot;&gt;Get Pending Violation Status Data&lt;/font&gt;" style="whiteSpace=wrap;html=1;rounded=1;strokeWidth=2;" vertex="1" parent="WIyWlLk6GJQsqaUBKTNV-1">
          <mxGeometry x="932.05" y="365.1600000000001" width="132.72" height="41.68" as="geometry" />
        </mxCell>
        <mxCell id="Jah_FWy3oRd_HzsZrCZo-4" value="&lt;font style=&quot;font-size: 14px;&quot;&gt;Get Recorded Violation Status Data&lt;/font&gt;" style="whiteSpace=wrap;html=1;rounded=1;strokeWidth=2;" vertex="1" parent="WIyWlLk6GJQsqaUBKTNV-1">
          <mxGeometry x="1076.05" y="365.1600000000001" width="132.72" height="41.68" as="geometry" />
        </mxCell>
        <mxCell id="Jah_FWy3oRd_HzsZrCZo-5" value="" style="edgeStyle=orthogonalEdgeStyle;rounded=0;orthogonalLoop=1;jettySize=auto;html=1;entryX=0.5;entryY=0;entryDx=0;entryDy=0;exitX=0.5;exitY=1;exitDx=0;exitDy=0;" edge="1" parent="WIyWlLk6GJQsqaUBKTNV-1" source="ShsvSv2e8H0igmz0pUxx-86" target="Jah_FWy3oRd_HzsZrCZo-3">
          <mxGeometry relative="1" as="geometry">
            <Array as="points">
              <mxPoint x="924.05" y="269.23" />
              <mxPoint x="998.05" y="269.23" />
            </Array>
            <mxPoint x="1064.05" y="269.23" as="sourcePoint" />
            <mxPoint x="1214.05" y="324.23" as="targetPoint" />
          </mxGeometry>
        </mxCell>
        <mxCell id="Jah_FWy3oRd_HzsZrCZo-6" value="" style="edgeStyle=orthogonalEdgeStyle;rounded=0;orthogonalLoop=1;jettySize=auto;html=1;entryX=0.5;entryY=0;entryDx=0;entryDy=0;exitX=0.5;exitY=1;exitDx=0;exitDy=0;" edge="1" parent="WIyWlLk6GJQsqaUBKTNV-1" source="ShsvSv2e8H0igmz0pUxx-86" target="Jah_FWy3oRd_HzsZrCZo-4">
          <mxGeometry relative="1" as="geometry">
            <Array as="points">
              <mxPoint x="924.05" y="269.23" />
              <mxPoint x="1148.05" y="269.23" />
              <mxPoint x="1148.05" y="365.23" />
            </Array>
            <mxPoint x="1004.05" y="281.23" as="sourcePoint" />
            <mxPoint x="1078.05" y="396.23" as="targetPoint" />
          </mxGeometry>
        </mxCell>
        <mxCell id="Jah_FWy3oRd_HzsZrCZo-8" value="stud_table" style="strokeWidth=2;html=1;shape=mxgraph.flowchart.database;whiteSpace=wrap;" vertex="1" parent="WIyWlLk6GJQsqaUBKTNV-1">
          <mxGeometry x="1497.85" y="779.5" width="60" height="37" as="geometry" />
        </mxCell>
        <mxCell id="Jah_FWy3oRd_HzsZrCZo-9" value="stud_table" style="strokeWidth=2;html=1;shape=mxgraph.flowchart.database;whiteSpace=wrap;" vertex="1" parent="WIyWlLk6GJQsqaUBKTNV-1">
          <mxGeometry x="1497.85" y="883.75" width="60" height="37" as="geometry" />
        </mxCell>
        <mxCell id="Jah_FWy3oRd_HzsZrCZo-10" value="stud_table" style="strokeWidth=2;html=1;shape=mxgraph.flowchart.database;whiteSpace=wrap;" vertex="1" parent="WIyWlLk6GJQsqaUBKTNV-1">
          <mxGeometry x="1497.85" y="985.75" width="60" height="37" as="geometry" />
        </mxCell>
        <mxCell id="Jah_FWy3oRd_HzsZrCZo-11" value="vio_table" style="strokeWidth=2;html=1;shape=mxgraph.flowchart.database;whiteSpace=wrap;" vertex="1" parent="WIyWlLk6GJQsqaUBKTNV-1">
          <mxGeometry x="667" y="1436.26" width="59.68" height="49" as="geometry" />
        </mxCell>
        <mxCell id="Jah_FWy3oRd_HzsZrCZo-12" value="vio_table" style="strokeWidth=2;html=1;shape=mxgraph.flowchart.database;whiteSpace=wrap;" vertex="1" parent="WIyWlLk6GJQsqaUBKTNV-1">
          <mxGeometry x="667" y="1541.43" width="59.68" height="49" as="geometry" />
        </mxCell>
        <mxCell id="Jah_FWy3oRd_HzsZrCZo-14" value="vio_table" style="strokeWidth=2;html=1;shape=mxgraph.flowchart.database;whiteSpace=wrap;" vertex="1" parent="WIyWlLk6GJQsqaUBKTNV-1">
          <mxGeometry x="667" y="1643.43" width="59.68" height="49" as="geometry" />
        </mxCell>
        <mxCell id="Jah_FWy3oRd_HzsZrCZo-16" value="rec_table" style="strokeWidth=2;html=1;shape=mxgraph.flowchart.database;whiteSpace=wrap;" vertex="1" parent="WIyWlLk6GJQsqaUBKTNV-1">
          <mxGeometry x="668" y="2044.43" width="54.96" height="49" as="geometry" />
        </mxCell>
        <mxCell id="Jah_FWy3oRd_HzsZrCZo-17" value="rec_table" style="strokeWidth=2;html=1;shape=mxgraph.flowchart.database;whiteSpace=wrap;" vertex="1" parent="WIyWlLk6GJQsqaUBKTNV-1">
          <mxGeometry x="668" y="2146.9300000000003" width="54.96" height="49" as="geometry" />
        </mxCell>
        <mxCell id="Jah_FWy3oRd_HzsZrCZo-18" value="users" style="strokeWidth=2;html=1;shape=mxgraph.flowchart.database;whiteSpace=wrap;" vertex="1" parent="WIyWlLk6GJQsqaUBKTNV-1">
          <mxGeometry x="1471.0100000000002" y="1422.1100000000001" width="57.48" height="49" as="geometry" />
        </mxCell>
        <mxCell id="Jah_FWy3oRd_HzsZrCZo-19" value="users" style="strokeWidth=2;html=1;shape=mxgraph.flowchart.database;whiteSpace=wrap;" vertex="1" parent="WIyWlLk6GJQsqaUBKTNV-1">
          <mxGeometry x="1471.0700000000002" y="1528.3600000000001" width="57.48" height="49" as="geometry" />
        </mxCell>
        <mxCell id="Jah_FWy3oRd_HzsZrCZo-20" value="users" style="strokeWidth=2;html=1;shape=mxgraph.flowchart.database;whiteSpace=wrap;" vertex="1" parent="WIyWlLk6GJQsqaUBKTNV-1">
          <mxGeometry x="1487.18" y="1632.3600000000001" width="57.48" height="49" as="geometry" />
        </mxCell>
        <mxCell id="Jah_FWy3oRd_HzsZrCZo-22" value="user_table" style="strokeWidth=2;html=1;shape=mxgraph.flowchart.database;whiteSpace=wrap;" vertex="1" parent="WIyWlLk6GJQsqaUBKTNV-1">
          <mxGeometry x="1484.85" y="1974.1799999999998" width="67.71" height="49" as="geometry" />
        </mxCell>
        <mxCell id="Jah_FWy3oRd_HzsZrCZo-26" value="" style="verticalLabelPosition=bottom;verticalAlign=top;html=1;shape=offPageConnector;rounded=0;size=0.5;" vertex="1" parent="WIyWlLk6GJQsqaUBKTNV-1">
          <mxGeometry x="1406.98" y="48" width="60" height="60" as="geometry" />
        </mxCell>
        <mxCell id="Jah_FWy3oRd_HzsZrCZo-27" value="7" style="text;html=1;align=center;verticalAlign=middle;whiteSpace=wrap;rounded=0;" vertex="1" parent="WIyWlLk6GJQsqaUBKTNV-1">
          <mxGeometry x="1406.98" y="54.41000000000008" width="60" height="39.68" as="geometry" />
        </mxCell>
        <mxCell id="Jah_FWy3oRd_HzsZrCZo-30" value="" style="verticalLabelPosition=bottom;verticalAlign=top;html=1;shape=offPageConnector;rounded=0;size=0.5;" vertex="1" parent="WIyWlLk6GJQsqaUBKTNV-1">
          <mxGeometry x="889.73" y="1241.43" width="60" height="60" as="geometry" />
        </mxCell>
        <mxCell id="Jah_FWy3oRd_HzsZrCZo-31" value="7" style="text;html=1;align=center;verticalAlign=middle;whiteSpace=wrap;rounded=0;" vertex="1" parent="WIyWlLk6GJQsqaUBKTNV-1">
          <mxGeometry x="889.73" y="1251.5900000000001" width="60" height="39.68" as="geometry" />
        </mxCell>
        <mxCell id="Jah_FWy3oRd_HzsZrCZo-34" value="" style="verticalLabelPosition=bottom;verticalAlign=top;html=1;shape=offPageConnector;rounded=0;size=0.5;" vertex="1" parent="WIyWlLk6GJQsqaUBKTNV-1">
          <mxGeometry x="909.85" y="2116.9300000000003" width="60" height="60" as="geometry" />
        </mxCell>
        <mxCell id="Jah_FWy3oRd_HzsZrCZo-35" value="9" style="text;html=1;align=center;verticalAlign=middle;whiteSpace=wrap;rounded=0;" vertex="1" parent="WIyWlLk6GJQsqaUBKTNV-1">
          <mxGeometry x="909.85" y="2123.34" width="60" height="39.68" as="geometry" />
        </mxCell>
        <mxCell id="Jah_FWy3oRd_HzsZrCZo-36" value="" style="verticalLabelPosition=bottom;verticalAlign=top;html=1;shape=offPageConnector;rounded=0;size=0.5;" vertex="1" parent="WIyWlLk6GJQsqaUBKTNV-1">
          <mxGeometry x="904.57" y="1778.43" width="60" height="60" as="geometry" />
        </mxCell>
        <mxCell id="Jah_FWy3oRd_HzsZrCZo-37" value="8" style="text;html=1;align=center;verticalAlign=middle;whiteSpace=wrap;rounded=0;" vertex="1" parent="WIyWlLk6GJQsqaUBKTNV-1">
          <mxGeometry x="904.57" y="1784.8400000000001" width="60" height="39.68" as="geometry" />
        </mxCell>
      </root>
    </mxGraphModel>
  </diagram>
</mxfile>
